<?xml version="1.0" encoding="utf-8"?>
<!-- Generator: Adobe Illustrator 19.0.0, SVG Export Plug-In . SVG Version: 6.00 Build 0)  -->
<svg version="1.1" id="OBJECTS" xmlns="http://www.w3.org/2000/svg" xmlns:xlink="http://www.w3.org/1999/xlink" x="0px" y="0px"
	 viewBox="0 0 1024 928.9" style="enable-background:new 0 0 1024 928.9;" xml:space="preserve">
<style type="text/css">
	.st0{fill:#39ACE7;}
	.st1{fill:#0784B5;}
	.st2{fill:#303030;}
	.st3{fill:none;stroke:#231915;stroke-width:5.663900e-002;stroke-miterlimit:10;}
	.st4{fill:#303030;stroke:#231915;stroke-width:5.663900e-002;stroke-miterlimit:10;}
	.st5{opacity:0.5;}
	.st6{fill:#414C50;}
	.st7{fill:#748589;}
	.st8{opacity:0.2;fill:#2D383C;}
	.st9{opacity:0.2;fill:#FFFFFF;}
	.st10{fill:none;}
	.st11{fill-rule:evenodd;clip-rule:evenodd;fill:#131313;}
	.st12{fill-rule:evenodd;clip-rule:evenodd;fill:#303030;}
	.st13{fill-rule:evenodd;clip-rule:evenodd;fill:#242424;}
	.st14{fill-rule:evenodd;clip-rule:evenodd;fill:#281F1E;stroke:#231915;stroke-width:5.663900e-002;stroke-miterlimit:10;}
	.st15{fill-rule:evenodd;clip-rule:evenodd;fill:#303030;stroke:#231915;stroke-width:5.663900e-002;stroke-miterlimit:10;}
	.st16{opacity:0.2;fill-rule:evenodd;clip-rule:evenodd;fill:#2D383C;}
	.st17{fill-rule:evenodd;clip-rule:evenodd;fill:#3E3938;}
	.st18{fill-rule:evenodd;clip-rule:evenodd;fill:#281F1E;}
	.st19{fill-rule:evenodd;clip-rule:evenodd;fill:#F5B090;}
	.st20{fill-rule:evenodd;clip-rule:evenodd;fill:#39ACE7;}
	.st21{fill-rule:evenodd;clip-rule:evenodd;fill:#E79977;}
	.st22{fill-rule:evenodd;clip-rule:evenodd;fill:#0784B5;}
	.st23{fill-rule:evenodd;clip-rule:evenodd;fill:#231915;}
	.st24{fill-rule:evenodd;clip-rule:evenodd;fill:#ED9C78;}
	.st25{fill-rule:evenodd;clip-rule:evenodd;fill:#EC916A;}
	.st26{fill-rule:evenodd;clip-rule:evenodd;fill:#292424;}
	.st27{fill-rule:evenodd;clip-rule:evenodd;fill:#231915;stroke:#231915;stroke-width:0.1431;stroke-miterlimit:10;}
	.st28{fill-rule:evenodd;clip-rule:evenodd;fill:#373330;}
	.st29{fill-rule:evenodd;clip-rule:evenodd;fill:#748589;}
	.st30{fill-rule:evenodd;clip-rule:evenodd;fill:#2D2222;stroke:#231915;stroke-width:0.1431;stroke-miterlimit:10;}
	.st31{fill-rule:evenodd;clip-rule:evenodd;fill:#F6B79C;}
	.st32{fill-rule:evenodd;clip-rule:evenodd;fill:#281F1E;stroke:#231915;stroke-width:0.1431;stroke-miterlimit:10;}
</style>
<g id="XMLID_1_">
	<path id="XMLID_28_" class="st0" d="M1024,928.9V48.3C901.9-9.1,724.9,9.2,626.5,105.4c-30.5,29.9-56.5,66.1-93.2,86.8
		c-80.4,45.6-194.3,7.5-259.9,74.5c-56.6,57.9-41.5,159.9-83.8,230.1c-18.3,30.5-43,56.7-69.9,79C21.4,657.1,34.2,865,132.4,928.9
		H1024z"/>
	<path id="XMLID_117_" class="st1" d="M1024,928.9l0-856.3c-122.3-56.9-277-32.2-375.6,63.2c-30.6,29.6-56.7,65.5-93.4,86.1
		c-80.5,45.2-194.7,7.4-260.4,73.9c-56.7,57.4-41.6,158.6-84,228.3c-18.4,30.2-43.1,56.2-70.1,78.3c-98.4,80.6-108.4,263-9.9,326.4
		H1024z"/>
	<g id="XMLID_31_">
		<g id="XMLID_819_">
			<g id="XMLID_824_">
				<g id="XMLID_879_">
					<g id="XMLID_886_">
						<path id="XMLID_887_" class="st2" d="M991.6,208.7v-71c0-25.3-20-46-45-47.1c-0.1,0-0.2,0-0.3,0c-0.6,0-1.2,0-1.8,0
							c-0.6,0-1.2,0-1.8,0c-0.1,0-0.2,0-0.3,0c-25,1.1-45,21.8-45,47.1c0,1,0,2,0.1,2.9h-0.1v48.2c1-0.3,2-0.3,3-0.1v-34.5
							c6.7,17.9,24,30.7,44.2,30.7c20.2,0,37.5-12.8,44.2-30.7v54.7C989.6,208.5,990.6,208.5,991.6,208.7z M942.7,93.5
							c0.6,0,1.1,0,1.7,0c0.6,0,1.1,0,1.7,0c17.3,0.9,31.2,15.3,31.2,32.8c0,18.1-14.7,32.9-32.9,32.9c-18.1,0-32.9-14.7-32.9-32.9
							C911.5,108.7,925.4,94.4,942.7,93.5z M912.8,109.5c-2.7,5-4.2,10.7-4.2,16.8c0,19.8,16.1,35.8,35.8,35.8
							c19.8,0,35.8-16.1,35.8-35.8c0-6.1-1.5-11.8-4.2-16.8c4.8,6.5,7.6,14.5,7.6,23.2c0,21.6-17.6,39.2-39.2,39.2
							c-21.6,0-39.2-17.6-39.2-39.2C905.2,124,908,116,912.8,109.5z M944.4,181.8c-24.4,0-44.2-19.8-44.2-44.2
							c0-7.1,1.7-13.7,4.6-19.7c-1.7,4.6-2.6,9.5-2.6,14.7c0,23.3,18.9,42.2,42.2,42.2c23.3,0,42.2-18.9,42.2-42.2
							c0-5.2-0.9-10.1-2.6-14.7c3,5.9,4.6,12.6,4.6,19.7C988.6,162,968.8,181.8,944.4,181.8z"/>
					</g>
					<g id="XMLID_880_">
						<path id="XMLID_881_" class="st3" d="M991.6,208.7v-71c0-25.3-20-46-45-47.1c-0.1,0-0.2,0-0.3,0c-0.6,0-1.2,0-1.8,0
							c-0.6,0-1.2,0-1.8,0c-0.1,0-0.2,0-0.3,0c-25,1.1-45,21.8-45,47.1c0,1,0,2,0.1,2.9h-0.1v48.2c1-0.3,2-0.3,3-0.1v-34.5
							c6.7,17.9,24,30.7,44.2,30.7c20.2,0,37.5-12.8,44.2-30.7v54.7C989.6,208.5,990.6,208.5,991.6,208.7z M942.7,93.5
							c0.6,0,1.1,0,1.7,0c0.6,0,1.1,0,1.7,0c17.3,0.9,31.2,15.3,31.2,32.8c0,18.1-14.7,32.9-32.9,32.9c-18.1,0-32.9-14.7-32.9-32.9
							C911.5,108.7,925.4,94.4,942.7,93.5z M912.8,109.5c-2.7,5-4.2,10.7-4.2,16.8c0,19.8,16.1,35.8,35.8,35.8
							c19.8,0,35.8-16.1,35.8-35.8c0-6.1-1.5-11.8-4.2-16.8c4.8,6.5,7.6,14.5,7.6,23.2c0,21.6-17.6,39.2-39.2,39.2
							c-21.6,0-39.2-17.6-39.2-39.2C905.2,124,908,116,912.8,109.5z M944.4,181.8c-24.4,0-44.2-19.8-44.2-44.2
							c0-7.1,1.7-13.7,4.6-19.7c-1.7,4.6-2.6,9.5-2.6,14.7c0,23.3,18.9,42.2,42.2,42.2c23.3,0,42.2-18.9,42.2-42.2
							c0-5.2-0.9-10.1-2.6-14.7c3,5.9,4.6,12.6,4.6,19.7C988.6,162,968.8,181.8,944.4,181.8z"/>
					</g>
				</g>
				<g id="XMLID_876_">
					<path id="XMLID_878_" class="st2" d="M893.4,212.6h11.1c0-1.2,0-2.3,0-3.5h-11.1C893.4,210.3,893.4,211.4,893.4,212.6z"/>
					<path id="XMLID_877_" class="st3" d="M893.4,212.6h11.1c0-1.2,0-2.3,0-3.5h-11.1C893.4,210.3,893.4,211.4,893.4,212.6z"/>
				</g>
				<g id="XMLID_873_">
					<path id="XMLID_875_" class="st2" d="M893.4,208h11.1c0-2.6,0-5.1,0-7.7h-11.1C893.4,202.9,893.4,205.4,893.4,208z"/>
					<path id="XMLID_874_" class="st3" d="M893.4,208h11.1c0-2.6,0-5.1,0-7.7h-11.1C893.4,202.9,893.4,205.4,893.4,208z"/>
				</g>
				<g id="XMLID_870_">
					<path id="XMLID_872_" class="st2" d="M893.4,214c0,7.2,11.1,7.2,11.1,0c0-0.1,0-0.2,0-0.3h-11.1
						C893.4,213.8,893.4,213.9,893.4,214z"/>
					<path id="XMLID_871_" class="st3" d="M893.4,214c0,7.2,11.1,7.2,11.1,0c0-0.1,0-0.2,0-0.3h-11.1
						C893.4,213.8,893.4,213.9,893.4,214z"/>
				</g>
				<g id="XMLID_867_">
					<path id="XMLID_869_" class="st2" d="M893.4,199.2h11.1c0-1.2,0-2.3,0-3.5h-11.1C893.4,196.9,893.4,198.1,893.4,199.2z"/>
					<path id="XMLID_868_" class="st3" d="M893.4,199.2h11.1c0-1.2,0-2.3,0-3.5h-11.1C893.4,196.9,893.4,198.1,893.4,199.2z"/>
				</g>
				<g id="XMLID_864_">
					<path id="XMLID_866_" class="st2" d="M897.2,188.7c-2.1,0.6-3.8,2.3-3.8,5.1c0,0.3,0,0.5,0,0.8h11.1c0-0.3,0-0.5,0-0.8
						c0-3.1-2-4.8-4.3-5.3C899.2,188.4,898.2,188.5,897.2,188.7z"/>
					<path id="XMLID_865_" class="st3" d="M897.2,188.7c-2.1,0.6-3.8,2.3-3.8,5.1c0,0.3,0,0.5,0,0.8h11.1c0-0.3,0-0.5,0-0.8
						c0-3.1-2-4.8-4.3-5.3C899.2,188.4,898.2,188.5,897.2,188.7z"/>
				</g>
				<g id="XMLID_861_">
					<path id="XMLID_863_" class="st2" d="M893.4,213.7h11.1c0-0.4,0-0.7,0-1.1h-11.1C893.4,212.9,893.4,213.3,893.4,213.7z"/>
					<path id="XMLID_862_" class="st3" d="M893.4,213.7h11.1c0-0.4,0-0.7,0-1.1h-11.1C893.4,212.9,893.4,213.3,893.4,213.7z"/>
				</g>
				<g id="XMLID_858_">
					<path id="XMLID_860_" class="st2" d="M893.4,209.1h11.1c0-0.4,0-0.7,0-1.1h-11.1C893.4,208.4,893.4,208.7,893.4,209.1z"/>
					<path id="XMLID_859_" class="st3" d="M893.4,209.1h11.1c0-0.4,0-0.7,0-1.1h-11.1C893.4,208.4,893.4,208.7,893.4,209.1z"/>
				</g>
				<g id="XMLID_855_">
					<path id="XMLID_857_" class="st2" d="M893.4,200.3h11.1c0-0.4,0-0.7,0-1.1h-11.1C893.4,199.6,893.4,199.9,893.4,200.3z"/>
					<path id="XMLID_856_" class="st3" d="M893.4,200.3h11.1c0-0.4,0-0.7,0-1.1h-11.1C893.4,199.6,893.4,199.9,893.4,200.3z"/>
				</g>
				<g id="XMLID_852_">
					<path id="XMLID_854_" class="st2" d="M893.4,194.6c0,0.4,0,0.7,0,1.1h11.1c0-0.4,0-0.7,0-1.1H893.4z"/>
					<path id="XMLID_853_" class="st3" d="M893.4,194.6c0,0.4,0,0.7,0,1.1h11.1c0-0.4,0-0.7,0-1.1H893.4z"/>
				</g>
				<g id="XMLID_849_">
					<path id="XMLID_851_" class="st2" d="M984.8,232.6h11.1c0-1.2,0-2.3,0-3.5h-11.1C984.8,230.3,984.8,231.5,984.8,232.6z"/>
					<path id="XMLID_850_" class="st3" d="M984.8,232.6h11.1c0-1.2,0-2.3,0-3.5h-11.1C984.8,230.3,984.8,231.5,984.8,232.6z"/>
				</g>
				<g id="XMLID_846_">
					<path id="XMLID_848_" class="st2" d="M991.6,208.7c-1-0.2-2-0.1-3,0.1c-2.1,0.6-3.8,2.3-3.8,5.1c0,0.3,0,0.5,0,0.8h11.1
						c0-0.3,0-0.5,0-0.8C995.9,210.9,993.9,209.1,991.6,208.7z"/>
					<path id="XMLID_847_" class="st3" d="M991.6,208.7c-1-0.2-2-0.1-3,0.1c-2.1,0.6-3.8,2.3-3.8,5.1c0,0.3,0,0.5,0,0.8h11.1
						c0-0.3,0-0.5,0-0.8C995.9,210.9,993.9,209.1,991.6,208.7z"/>
				</g>
				<g id="XMLID_843_">
					<path id="XMLID_845_" class="st2" d="M984.8,234c0,7.2,11.1,7.2,11.1,0c0-0.1,0-0.2,0-0.3h-11.1
						C984.8,233.8,984.8,233.9,984.8,234z"/>
					<path id="XMLID_844_" class="st3" d="M984.8,234c0,7.2,11.1,7.2,11.1,0c0-0.1,0-0.2,0-0.3h-11.1
						C984.8,233.8,984.8,233.9,984.8,234z"/>
				</g>
				<g id="XMLID_840_">
					<path id="XMLID_842_" class="st2" d="M984.8,215.8c0,1.2,0,2.3,0,3.5h11.1c0-1.2,0-2.3,0-3.5H984.8z"/>
					<path id="XMLID_841_" class="st3" d="M984.8,215.8c0,1.2,0,2.3,0,3.5h11.1c0-1.2,0-2.3,0-3.5H984.8z"/>
				</g>
				<g id="XMLID_837_">
					<path id="XMLID_839_" class="st2" d="M984.8,220.4c0,2.6,0,5.1,0,7.7h11.1c0-2.6,0-5.1,0-7.7H984.8z"/>
					<path id="XMLID_838_" class="st3" d="M984.8,220.4c0,2.6,0,5.1,0,7.7h11.1c0-2.6,0-5.1,0-7.7H984.8z"/>
				</g>
				<g id="XMLID_834_">
					<path id="XMLID_836_" class="st2" d="M984.8,233.7h11.1c0-0.4,0-0.7,0-1.1h-11.1C984.8,233,984.8,233.4,984.8,233.7z"/>
					<path id="XMLID_835_" class="st3" d="M984.8,233.7h11.1c0-0.4,0-0.7,0-1.1h-11.1C984.8,233,984.8,233.4,984.8,233.7z"/>
				</g>
				<g id="XMLID_831_">
					<path id="XMLID_833_" class="st2" d="M984.8,229.2h11.1c0-0.4,0-0.7,0-1.1h-11.1C984.8,228.4,984.8,228.8,984.8,229.2z"/>
					<path id="XMLID_832_" class="st3" d="M984.8,229.2h11.1c0-0.4,0-0.7,0-1.1h-11.1C984.8,228.4,984.8,228.8,984.8,229.2z"/>
				</g>
				<g id="XMLID_828_">
					<path id="XMLID_830_" class="st2" d="M984.8,219.3c0,0.4,0,0.7,0,1.1h11.1c0-0.4,0-0.7,0-1.1H984.8z"/>
					<path id="XMLID_829_" class="st3" d="M984.8,219.3c0,0.4,0,0.7,0,1.1h11.1c0-0.4,0-0.7,0-1.1H984.8z"/>
				</g>
				<g id="XMLID_825_">
					<path id="XMLID_827_" class="st2" d="M984.8,214.7c0,0.4,0,0.7,0,1.1h11.1c0-0.4,0-0.7,0-1.1H984.8z"/>
					<path id="XMLID_826_" class="st3" d="M984.8,214.7c0,0.4,0,0.7,0,1.1h11.1c0-0.4,0-0.7,0-1.1H984.8z"/>
				</g>
			</g>
			<g id="XMLID_820_">
				<path id="XMLID_823_" class="st4" d="M947.7,78.5H941c-1.3,0-2.4,1.1-2.4,2.4v0.8c0,1.2,0.9,2.2,2.1,2.4c0,0,0,0,0,0.1
					c0,3.6,0,7.1,0,10.7c0,4.8,7.4,4.8,7.4,0c0-3.6,0-7.1,0-10.7c0,0,0,0,0-0.1c1.1-0.2,2-1.2,2-2.4v-0.8
					C950.1,79.6,949.1,78.5,947.7,78.5z"/>
				<g id="XMLID_821_" class="st5">
					<path id="XMLID_822_" class="st4" d="M941.7,92c0,1.7,0.3,5.1,2.7,5c0.6,0,0.6-0.9,0-0.9c-1.6,0-1.7-3-1.7-4.1
						C942.6,91.4,941.7,91.4,941.7,92L941.7,92z"/>
				</g>
			</g>
		</g>
	</g>
	<path id="XMLID_135_" class="st6" d="M1024,441v487.9H130.6c-98.5-63.4-88.5-245.9,9.9-326.4c27-22.1,51.7-48.1,70.1-78.3
		c15.1-24.9,22.9-53.7,29.3-83.2H1024z"/>
	<g id="XMLID_201_">
		<g id="XMLID_563_">
			<g id="XMLID_605_">
				<g id="XMLID_606_">
					<path id="XMLID_607_" class="st4" d="M778.3,183c1,0,2-0.2,2.9-0.5l51.2-19.2c4.3-1.6,6.5-6.5,4.9-10.8
						c-1.6-4.3-6.5-6.5-10.8-4.9l-51.2,19.2c-4.3,1.6-6.5,6.5-4.9,10.8C771.7,180.9,774.9,183,778.3,183z"/>
				</g>
			</g>
			<g id="XMLID_602_">
				<g id="XMLID_603_">
					<path id="XMLID_604_" class="st4" d="M750,361.4c2.5,0,4.8-1.6,5.6-4L819.7,163c1-3.1-0.7-6.4-3.7-7.4c-3.1-1-6.4,0.7-7.4,3.7
						l-64.1,194.3c-1,3.1,0.7,6.4,3.7,7.4C748.8,361.3,749.4,361.4,750,361.4z"/>
				</g>
			</g>
			<g id="XMLID_599_">
				<g id="XMLID_600_">
					<path id="XMLID_601_" class="st4" d="M761.3,199.1h41.6c2.3,0,4.2-1.9,4.2-4.2c0-2.3-1.9-4.2-4.2-4.2h-41.6
						c-5.8,0-11-2.9-14.1-7.8c-3.1-4.9-3.4-10.9-0.9-16.1l20.1-42c1-2.1,0.1-4.6-2-5.6c-2.1-1-4.6-0.1-5.6,2l-20.1,42
						c-3.7,7.8-3.2,16.9,1.4,24.2C744.7,194.7,752.7,199.1,761.3,199.1z"/>
				</g>
			</g>
			<g id="XMLID_596_">
				<path id="XMLID_598_" class="st2" d="M791.5,218.1l7.8,2.2c4.4,1.2,9.1-1.3,10.3-5.8l0,0c1.2-4.4-1.3-9.1-5.8-10.3l-7.8-2.2
					c-4.4-1.2-9.1,1.3-10.3,5.8l0,0C784.5,212.3,787.1,216.9,791.5,218.1z"/>
				<path id="XMLID_597_" class="st3" d="M791.5,218.1l7.8,2.2c4.4,1.2,9.1-1.3,10.3-5.8l0,0c1.2-4.4-1.3-9.1-5.8-10.3l-7.8-2.2
					c-4.4-1.2-9.1,1.3-10.3,5.8l0,0C784.5,212.3,787.1,216.9,791.5,218.1z"/>
			</g>
			<g id="XMLID_593_">
				<path id="XMLID_595_" class="st2" d="M759.4,313.7l7.8,2.2c4.4,1.2,9.1-1.3,10.3-5.8l0,0c1.2-4.4-1.3-9.1-5.8-10.3l-7.8-2.2
					c-4.4-1.2-9.1,1.3-10.3,5.8l0,0C752.4,307.8,755,312.4,759.4,313.7z"/>
				<path id="XMLID_594_" class="st3" d="M759.4,313.7l7.8,2.2c4.4,1.2,9.1-1.3,10.3-5.8l0,0c1.2-4.4-1.3-9.1-5.8-10.3l-7.8-2.2
					c-4.4-1.2-9.1,1.3-10.3,5.8l0,0C752.4,307.8,755,312.4,759.4,313.7z"/>
			</g>
			<g id="XMLID_590_">
				<g id="XMLID_591_">
					<path id="XMLID_592_" class="st4" d="M647.1,338.7c0.3,0,0.7,0,1-0.1c3.2-0.6,5.3-3.6,4.8-6.8l-18.2-102.4
						c-0.6-3.2-3.6-5.3-6.8-4.8c-3.2,0.6-5.3,3.6-4.8,6.8l18.2,102.4C641.9,336.7,644.4,338.7,647.1,338.7z"/>
				</g>
			</g>
			<g id="XMLID_587_">
				<path id="XMLID_589_" class="st2" d="M655.9,230.4h-33.5c-1.6,0-3.2-0.4-4.7-1.1c-4.4-2.2-13.6-7.1-13.5-9.9
					c0.1-3.7-2.2-15.2,3.8-15.4c6-0.2,17,8.5,32.8,11c15.8,2.5,27,2,25,8.3c0,0.1,0,0.1-0.1,0.2
					C664.4,227.7,660.3,230.4,655.9,230.4z"/>
				<path id="XMLID_588_" class="st3" d="M655.9,230.4h-33.5c-1.6,0-3.2-0.4-4.7-1.1c-4.4-2.2-13.6-7.1-13.5-9.9
					c0.1-3.7-2.2-15.2,3.8-15.4c6-0.2,17,8.5,32.8,11c15.8,2.5,27,2,25,8.3c0,0.1,0,0.1-0.1,0.2
					C664.4,227.7,660.3,230.4,655.9,230.4z"/>
			</g>
			<g id="XMLID_584_">
				<path id="XMLID_586_" class="st2" d="M833.9,391.6L833.9,391.6c0-13.1-8.8-24.6-21.4-28l-147-39.9
					c-31.4-8.5-62.3,15.1-62.3,47.6l0,0c0,27.3,22.1,49.3,49.3,49.3h152.3C821,420.6,833.9,407.6,833.9,391.6z"/>
				<path id="XMLID_585_" class="st3" d="M833.9,391.6L833.9,391.6c0-13.1-8.8-24.6-21.4-28l-147-39.9
					c-31.4-8.5-62.3,15.1-62.3,47.6l0,0c0,27.3,22.1,49.3,49.3,49.3h152.3C821,420.6,833.9,407.6,833.9,391.6z"/>
			</g>
			<circle id="XMLID_583_" class="st7" cx="655.5" cy="375" r="34.1"/>
			<g id="XMLID_579_">
				<circle id="XMLID_582_" class="st2" cx="655.5" cy="375" r="27.6"/>
				<circle id="XMLID_581_" class="st3" cx="655.5" cy="375" r="27.6"/>
			</g>
			<circle id="XMLID_578_" class="st7" cx="655.5" cy="375" r="11.5"/>
			<g id="XMLID_576_">
				<path id="XMLID_577_" class="st7" d="M655.5,379.1c1.4,0,2.8-0.7,3.6-2l22.1-35.6c1.2-2,0.6-4.6-1.3-5.8c-2-1.2-4.6-0.6-5.8,1.3
					L652,372.7c-1.2,2-0.6,4.6,1.3,5.8C654,378.9,654.8,379.1,655.5,379.1z"/>
			</g>
			<g id="XMLID_574_">
				<path id="XMLID_575_" class="st7" d="M688.2,350c1.4,0,2.7-0.7,3.5-1.9c1.3-1.9,0.7-4.5-1.2-5.8l-21.2-13.9
					c-1.9-1.3-4.5-0.7-5.8,1.2c-1.3,1.9-0.7,4.5,1.2,5.8l21.2,13.9C686.6,349.8,687.4,350,688.2,350z"/>
			</g>
			<g id="XMLID_571_">
				<rect id="XMLID_573_" x="603.3" y="420.6" class="st2" width="230.7" height="8.7"/>
				<rect id="XMLID_572_" x="603.3" y="420.6" class="st3" width="230.7" height="8.7"/>
			</g>
			<g id="XMLID_568_">
				<path id="XMLID_570_" class="st2" d="M826.8,441h22c1.5,0,2.6-1.2,2.6-2.6V421c0-1.5-1.2-2.6-2.6-2.6h-22
					c-1.5,0-2.6,1.2-2.6,2.6v17.3C824.2,439.8,825.4,441,826.8,441z"/>
				<path id="XMLID_569_" class="st3" d="M826.8,441h22c1.5,0,2.6-1.2,2.6-2.6V421c0-1.5-1.2-2.6-2.6-2.6h-22
					c-1.5,0-2.6,1.2-2.6,2.6v17.3C824.2,439.8,825.4,441,826.8,441z"/>
			</g>
			<g id="XMLID_564_">
				<path id="XMLID_566_" class="st2" d="M584.7,441h22c1.5,0,2.6-1.2,2.6-2.6V421c0-1.5-1.2-2.6-2.6-2.6h-22
					c-1.5,0-2.6,1.2-2.6,2.6v17.3C582,439.8,583.2,441,584.7,441z"/>
				<path id="XMLID_565_" class="st3" d="M584.7,441h22c1.5,0,2.6-1.2,2.6-2.6V421c0-1.5-1.2-2.6-2.6-2.6h-22
					c-1.5,0-2.6,1.2-2.6,2.6v17.3C582,439.8,583.2,441,584.7,441z"/>
			</g>
		</g>
	</g>
	<g id="XMLID_487_">
		<ellipse id="XMLID_1078_" class="st8" cx="235.5" cy="865.4" rx="84.1" ry="14.8"/>
		<g id="XMLID_1080_">
			<g id="XMLID_1089_">
				<circle id="XMLID_1587_" class="st0" cx="238.2" cy="750.5" r="111.1"/>
				<path id="XMLID_1590_" class="st1" d="M186.4,652.2c-15.3,19-24.5,43.2-24.5,69.6c0,61.4,49.8,111.1,111.1,111.1
					c18.7,0,36.3-4.6,51.8-12.8c-20.4,25.3-51.6,41.5-86.6,41.5c-61.4,0-111.1-49.8-111.1-111.1C127,707.9,151.1,670.8,186.4,652.2z
					"/>
			</g>
			<path id="XMLID_1591_" class="st9" d="M275,675.7c-6.8,8.8-1.4,24.3,12.1,34.8c13.5,10.4,29.9,11.8,36.7,3
				c6.8-8.8,1.4-24.3-12.1-34.8C298.3,668.3,281.8,667,275,675.7z"/>
		</g>
	</g>
	<rect id="XMLID_1592_" x="0" y="12.7" class="st10" width="1024" height="916.2"/>
	<g id="XMLID_153_">
		<rect id="XMLID_126_" x="409.7" y="587.3" class="st11" width="232" height="12.3"/>
		<rect id="XMLID_8_" x="408.2" y="587.3" class="st12" width="232" height="6.2"/>
		<path id="XMLID_7_" class="st13" d="M372.7,599.1c0,1.9-1.6,3.5-3.5,3.5c-1.9,0-3.5-1.6-3.5-3.5v-11.3c0-1.9,1.6-3.5,3.5-3.5
			c1.9,0,3.5,1.6,3.5,3.5V599.1z"/>
		<path id="XMLID_122_" class="st14" d="M396.8,642.2c0,3.7-2.1,6.8-4.9,6.8h-16.3c-2.7,0-4.9-2.9-4.9-6.8v-97.5
			c0-3.7,2.1-6.8,4.9-6.8h16.3c2.7,0,4.9,2.9,4.9,6.8V642.2z"/>
		<path id="XMLID_121_" class="st15" d="M383,538h-7.5c-2.7,0-4.9,2.9-4.9,6.8v97.5c0,3.7,2.1,6.8,4.9,6.8h7.5V538z"/>
		<path id="XMLID_6_" class="st14" d="M422.8,642.3c0,3.7-2.1,6.8-4.9,6.8h-16.3c-2.7,0-4.9-3-4.9-6.8v-97.8c0-3.7,2.1-6.8,4.9-6.8
			h16.3c2.7,0,4.9,3,4.9,6.8V642.3z"/>
		<path id="XMLID_5_" class="st15" d="M409,537.9h-7.5c-2.7,0-4.9,3-4.9,6.8v97.8c0,3.7,2.1,6.8,4.9,6.8h7.5V537.9z"/>
		<path id="XMLID_118_" class="st13" d="M686.6,599.1c0,1.9,1.6,3.5,3.5,3.5c1.9,0,3.5-1.6,3.5-3.5v-11.3c0-1.9-1.6-3.5-3.5-3.5
			c-1.9,0-3.5,1.6-3.5,3.5V599.1z"/>
		<path id="XMLID_4_" class="st14" d="M662.6,642.1c0,3.7,2.1,6.8,4.9,6.8h16.3c2.7,0,4.9-2.9,4.9-6.8v-97.7c0-3.7-2.1-6.8-4.9-6.8
			h-16.3c-2.7,0-4.9,3-4.9,6.8V642.1z"/>
		<path id="XMLID_3_" class="st15" d="M676.4,537.9h7.5c2.7,0,4.9,2.9,4.9,6.8v97.7c0,3.7-2.1,6.8-4.9,6.8h-7.5V537.9z"/>
		<path id="XMLID_9_" class="st14" d="M636.5,642.3c0,3.7,2.1,6.8,4.9,6.8h16.3c2.7,0,4.9-3,4.9-6.8v-97.8c0-3.7-2.1-6.8-4.9-6.8
			h-16.3c-2.7,0-4.9,3-4.9,6.8V642.3z"/>
		<path id="XMLID_10_" class="st15" d="M650.3,537.9h7.5c2.7,0,4.9,3,4.9,6.8v97.8c0,3.7-2.1,6.8-4.9,6.8h-7.5V537.9z"/>
	</g>
	<path id="XMLID_152_" class="st16" d="M999.5,903.2H391.1c-3.9,0-7-3.1-7-7v-22.1c0-3.9,3.1-7,7-7h608.4c3.9,0,7,3.1,7,7v22.1
		C1006.5,900.1,1003.3,903.2,999.5,903.2z"/>
	<g id="XMLID_16_">
		<rect id="XMLID_151_" x="870.8" y="741.8" class="st17" width="14.2" height="148.1"/>
		<rect id="XMLID_150_" x="704.2" y="741.8" class="st17" width="14.2" height="148.1"/>
		<rect id="XMLID_147_" x="708.8" y="741.8" class="st18" width="14.2" height="148.1"/>
		<rect id="XMLID_146_" x="867.8" y="741.8" class="st18" width="14.2" height="148.1"/>
		<path id="XMLID_145_" class="st19" d="M707.7,555.5c-7-9.9-25-55.2-25-55.2c-16.7,15.3-56,50.4-58,76.2
			c-45-26.3-79.7-31.2-79.7-31.2s-36.3-13.1-13.1,10.3c52.2,59,72.1,53.2,88.6,65.6c10.2,7.6,44.2-21.9,56.1-30
			C694.9,578.8,707.7,555.5,707.7,555.5L707.7,555.5z"/>
		<rect id="XMLID_144_" x="676.9" y="716.8" class="st20" width="224.2" height="33"/>
		<path id="XMLID_143_" class="st17" d="M737.4,655.9c-11.6,1.5-85.4,27.9-94.4,36.6c13.8,2.2,31.6,11.5,27.9,43.8
			c0,0,100.9-19.2,114-16c13.1,3.2,114.7,14.9,119.8,9.1c5.1-5.8,32.3-27.9,22.9-36.6c-9.4-8.7-91.7-40.8-91.7-40.8
			C774.4,631.4,793.8,648.8,737.4,655.9L737.4,655.9z"/>
		<path id="XMLID_142_" class="st19" d="M835.7,520.5c11.8,29.9,51.7,40.7,58.7,43.9c1.6,0.7-14.5,24.1-23.8,46.7
			c-9.3,22.6-15.3,34.1-15.3,34.1s-14.5-1.9-16.4,0.4c-2,2.3,0.2,8.8-0.9,11.9c-1.1,3.1-7.9,8.8-3,13.8c5,5,28.9,12.6,34.6,9.9
			c5.7-2.7,12.1-20.7,12-23.7c-0.1-3.1,2.2-11.1,2.2-11.1s41.9-30.3,51.5-53.6c9.6-23.4,2.6-32.2,0.5-36
			c-2.1-3.8-15.4-29.1-20.9-37.9c-5.5-8.8-26.2-32.2-45.4-45.2C829.4,446.3,821.6,484.7,835.7,520.5L835.7,520.5z"/>
		<path id="XMLID_140_" class="st21" d="M835.7,520.5c11.8,29.9,51.7,40.7,58.7,43.9c1.6,0.7-14.5,24.1-23.8,46.7
			c-9.3,22.6-15.3,34.1-15.3,34.1s-14.5-1.9-16.4,0.4c-2,2.3,0.2,8.8-0.9,11.9c-0.5,1.5-2.5,3.7-3.7,6c-0.2,1.1-0.7,2.3-1.1,3.5
			c0,0.8,0.1,1.5,0.4,2.3c1.9-2.4,5-8.4,7.3-10.2c2.8-2,1.1-4,2.7-7.6c1.6-3.6,9.5-1.1,14.2-1.6c4.6-0.5,57.8-79.9,54.2-88.7
			c-3.6-8.7-50-45.9-50-45.9l-32.1-17.1C830.8,505.3,832.8,512.9,835.7,520.5L835.7,520.5z"/>
		<path id="XMLID_139_" class="st20" d="M709.5,479.9c-6.4,4.8-27.9,16.7-39.3,27.9c-11.5,11.2-30.9,36.7-30.9,36.7s34,50.7,39.6,47
			c5.6-3.7,24.2-13.4,24.2-13.4l16.9,17c0,0,13.2,60.4,16.5,62.7c3.3,2.3,45,30.5,99.7-3.9c1.1-0.7-2.8-32.3-4.5-67.7
			c0,0,8.8-30.9-2.7-65.6l17.4,17.3c-5.3-2.4,24.8-32.5,41.3-49.5c0,0-23.1-31.7-40.1-43.6c-17-12-54.6-2.7-65.2-1.4
			C758.5,446.1,729.1,465.3,709.5,479.9L709.5,479.9z"/>
		<path id="XMLID_137_" class="st22" d="M829,520.6l17.4,17.3c-2.9-1.3,5-11.2,15.5-22.6v0L821,493.5L829,520.6z"/>
		<path id="XMLID_136_" class="st22" d="M660.8,574.4c8,10.2,15.6,18.7,18.1,17.1c5.6-3.7,24.2-13.4,24.2-13.4s3.1,5.5,14.3,18.7
			c9.2,22.8,17.3,59.6,20,61.4c2.6,1.7,31.1,20.4,70.8,8.7c-13.6-8.1-53-33.3-55.4-52.5c-2.9-23.2,9.9-32.4,9.9-32.4
			s-28.5,9.7-41.1,1.7c-12.6-8-16.2-24.1-17.9-25.2C702,557.4,660.8,574.4,660.8,574.4L660.8,574.4z"/>
		<path id="XMLID_134_" class="st19" d="M668.5,689.1c-13.2-6.1-28.9,0.7-35.2,14.9c-12.8,28.7-12.2,128.9-12.7,162l16.3,0.5
			c14.3-43.2,46.2-69.7,42.8-129.6C695.7,708.2,681.7,695.2,668.5,689.1L668.5,689.1z"/>
		<path id="XMLID_133_" class="st19" d="M638.4,846c0.7,2.2,5.1,26.3,5.1,26.3s-17.1,14.2-19.4,11.6c-2.4-2.5-11.8-15.1-10.7-17.2
			c1.1-2.2,7.5-18,7.5-18L638.4,846z"/>
		<path id="XMLID_130_" class="st23" d="M634,870.2c-0.9-2-9.4-13.9-15.4-13.1c-6,0.8-10.2,7.3-10.7,8.3c-0.5,1-1.6,2.7-8,7.1
			c-6.3,4.3-18.7,9.8-21.6,14.3c-2.9,4.5,8.5,7.8,12.9,8.7c4.4,0.9,29.2-0.5,35.4-2.3c6.2-1.7,16.2,2.8,18.5-0.8
			c2.4-3.6,1.5-23.9-0.4-23.6C642.9,869.2,634,870.2,634,870.2L634,870.2z"/>
		<path id="XMLID_127_" class="st19" d="M903,690c13.2-6.1,28.9,0.7,35.2,14.9c12.8,28.7,12.2,128.9,12.7,162l-16.3,0.5
			c-13.5-45.2-44.3-77.2-40.4-135.5C873.9,705.5,889.8,696.2,903,690L903,690z"/>
		<path id="XMLID_123_" class="st19" d="M933.2,846.9c-0.7,2.2-5.1,26.3-5.1,26.3s17.1,14.2,19.4,11.6c2.4-2.5,11.8-15.1,10.7-17.2
			c-1.1-2.2-7.5-18-7.5-18L933.2,846.9z"/>
		<path id="XMLID_67_" class="st23" d="M937.5,871.1c0.9-2,9.4-13.9,15.4-13.1c6,0.8,10.2,7.3,10.7,8.3c0.5,1,1.6,2.7,8,7.1
			c6.3,4.3,18.7,9.8,21.6,14.3c2.9,4.5-8.5,7.8-12.9,8.7c-4.3,0.9-29.2-0.5-35.4-2.3c-6.2-1.7-16.2,2.8-18.5-0.8
			c-2.4-3.6-1.5-23.9,0.4-23.6C928.7,870.1,937.5,871.1,937.5,871.1L937.5,871.1z"/>
		<path id="XMLID_64_" class="st24" d="M708.5,446.6c9.1,15.6,5.7,29.3-4.8,41.2c0,0,9.7,29,43.3,15.7c22.1-8.7,45.2-52.2,34.5-60.2
			c-18-4-35-26.9-48.8-40L708.5,446.6z"/>
		<path id="XMLID_63_" class="st25" d="M708.5,446.6c5.5,9.4,6.4,18.2,4,26.2c4.9-0.9,10.3-3.1,16.3-8.3
			c13.5-11.6,18.1-24.7,18.1-24.7s10.9,1.9,12.8,32.2c0.6,9.1,0.2,17-0.5,23.4c17.3-15.7,31-45.7,22.3-52.1c-18-4-35-26.9-48.8-40
			L708.5,446.6z"/>
		<path id="XMLID_62_" class="st26" d="M513,562.8c17.6,0,31.9-14.3,31.9-31.9c0-17.6-14.3-31.9-31.9-31.9
			c-17.6,0-31.9,14.3-31.9,31.9C481.1,548.5,495.4,562.8,513,562.8L513,562.8z"/>
		<path id="XMLID_57_" class="st23" d="M540.3,567.2c19.5,0,35.5-15.9,35.5-35.5c0-19.5-15.9-35.5-35.5-35.5s-35.5,15.9-35.5,35.5
			C504.8,551.2,520.8,567.2,540.3,567.2L540.3,567.2z"/>
		<path id="XMLID_51_" class="st18" d="M533.6,547.4c12.1,0,22-9.9,22-22c0-12.1-9.9-22-22-22c-12.1,0-22,9.9-22,22
			C511.6,537.5,521.5,547.4,533.6,547.4L533.6,547.4z"/>
		<path id="XMLID_49_" class="st19" d="M665.2,390.9c-0.8,6.4-0.8,31.3,4.1,34.2s10.1,6,10.1,6s-1,18.2,1.5,19.5
			c2.5,1.3,9.3-2.2,9.5-2.1c0.3,0.1,16,19.4,18,19c2-0.4,23.3-10.7,26.1-19.4c2.8-8.6,2.3-30.6,2.3-30.6s7-0.4,4.8-12.8
			c-2.3-12.4-2.3-13-7.7-13c-5.4,0-8.9,10.4-9.5,9.1c-0.6-1.2-8.5-21.9-17.2-24.4C698.6,373.7,665.2,390.9,665.2,390.9L665.2,390.9z
			"/>
		<path id="XMLID_48_" class="st23" d="M708,384.4c-4.2,2.3-19.5,19.1-36.9,21.2c-17.4,2.1-30.4-1.2-32.1-16.4
			c-1.7-15.1,3.9-19.7,3.9-19.7s1.5,9.3,5.6,10.8c4.1,1.4,25.3-14.7,43.3-19.5c18-4.8,29.6,7.2,29.6,7.2s9.5-0.8,16.6,6.6
			c7,7.5,9.5,42.9,9.5,42.9l-26.2-8L708,384.4z"/>
		<path id="XMLID_46_" class="st19" d="M736.9,417.4c0,0,7-0.4,4.8-12.8c-2.3-12.4-2.3-13-7.7-13c-9.3,0-12.3,17.1-3,22.3
			C734.9,416,736.9,417.4,736.9,417.4L736.9,417.4z"/>
		<path id="XMLID_45_" class="st27" d="M715.6,392.3c1,1.6,13.3,40.3,9,45.2c-3.5,4-12,2.6-21,4c-4.8,0.8-11.9,5.5-13,6.9
			c-1.9,2.5,8.5,18,15.8,19.4c7.3,1.3,14.5-3.9,21.6-8.5c7.1-4.6,10.9-12,9.9-22.3c-0.9-10.3-11.5-28.7-11.5-28.7L715.6,392.3z"/>
		<path id="XMLID_43_" class="st21" d="M659.4,575.4c0,0-27.9,33.8-44.5,29c-10.7-3.1-40.7-24.9-60.8-40c-3.6,1.5-7.6,2.5-11.7,2.7
			c44.5,46.8,62.8,42.6,78.2,54.2c10.2,7.6,44.2-21.9,56.1-30c-3.5-1.8-9.6-8.8-15.9-16.8C659.9,575,659.4,575.4,659.4,575.4
			L659.4,575.4z"/>
		<path id="XMLID_42_" class="st28" d="M717.2,661.7c21.8,10.7,50.9,20.7,66.8,20.4c22.2-0.5,34.8-7.7,39.2-4.4
			c4.4,3.4,9.2,18.9,37.2,13.5c13-2.5,23.4-9.6,30.7-16.6c-4.3-1.9-8.8-3.8-13.2-5.6c-2.3,5.3-5.4,10.7-8.4,12.1
			c-5.7,2.7-29.6-5-34.6-9.9c-0.6-0.7-1.1-1.3-1.4-2c-0.3-0.8-0.4-1.5-0.4-2.3c0.1-1.2,0.5-2.3,1.1-3.5c1.2-2.4,3.1-4.5,3.7-6
			c0.4-1.2,0.4-2.8,0.3-4.5c-0.6-0.2-1.1-0.4-1.5-0.6c-0.2,0.9-0.4,1.5-0.5,1.5c-20.5,12.9-82.6,17.3-100.7,2.4
			C732.1,656.9,726.2,658.7,717.2,661.7L717.2,661.7z"/>
		<path id="XMLID_41_" class="st28" d="M815.4,710.6c-33.9-3.4-49.4-2.9-76.9,1.5c-27.6,4.3-36.3-7.3-53.2-18.9
			c-7.7-5.3-14.4-8.6-22.2-11.2c-5.7,2.5-10.7,4.8-14.3,6.8c6.3-2.6,13.3-2.6,19.8,0.3c9.6,4.5,19.6,12.6,18.2,27.7
			c-0.5,5.1-2.2,10.9-5.7,17.7c25.9-4.8,93.3-16.7,103.9-14.1c10.7,2.6,80.6,10.9,108.6,10.7c-4.1-5.5-6.6-10.2-7.9-14.3
			c-4.8-15.2,7.1-22,17.4-26.7c6.7-3.1,14-2.9,20.4-0.1c-1.8-1-3.9-2.2-6.4-3.5c-6.2-1.5-12.1-2.2-17-1.6
			c-21.3,2.9-19.8,18.9-26.1,27.6C867.7,721.2,849.3,714,815.4,710.6L815.4,710.6z"/>
		<path id="XMLID_40_" class="st29" d="M579.8,885.1c-0.6,0.6-1.1,1.2-1.5,1.7c-2.9,4.5,8.5,7.8,12.9,8.7c4.4,0.9,29.2-0.5,35.4-2.3
			c6.2-1.7,16.2,2.8,18.5-0.8c0.6-0.9,1-2.9,1.2-5.3c-3.3-0.5-7.8-1.1-12.7-1.3c-10.2-0.5-19.1,3.9-32.9,3.9
			C593,889.6,585.2,887.2,579.8,885.1L579.8,885.1z"/>
		<path id="XMLID_38_" class="st29" d="M925.1,884.5c0.1,4,0.5,7.6,1.4,8.9c2.4,3.6,12.3-0.9,18.5,0.8c6.2,1.7,31,3.2,35.4,2.3
			c4.4-0.9,15.8-4.2,12.9-8.7c-0.3-0.4-0.6-0.8-1-1.2c-3,1.4-7.4,3.1-13.7,4.6c-14.7,3.3-19.4,0.7-36.5-3.6
			C934.7,885.6,929.2,884.8,925.1,884.5L925.1,884.5z"/>
		<path id="XMLID_37_" class="st30" d="M644.3,381.4c5.2,4,2.7,8.1,20.3,2.8c17.7-5.3,23.1-15.5,34-17.1c10.9-1.6,18.3,0.1,15.7,0.1
			c-2.5,0-9.4,4.5-9.4,4.5s12.9,2.5,11.8,2.2c-1.1-0.4-6.9,5.8-26.2,16.7C669.6,402.4,644.9,410.7,644.3,381.4L644.3,381.4z"/>
		<path id="XMLID_36_" class="st22" d="M747.1,503.6c-33.5,13.3-43.3-15.7-43.3-15.7c2.2-2.5,4.2-5.2,5.7-7.9
			c-4.1,3.1-14.7,9.3-24.8,16.3c1,5.5,3,11.5,6.8,16.7c10.4,14.2,61.4,21.8,91.2-8.2c21-21.2,18-49.2,14.4-63.8
			c-6.4,1-11.7,2-14.7,2.4c-0.3,0-0.5,0.1-0.8,0.1c8.7,6.5-5,36.5-22.3,52.1C755.3,499.1,751.2,501.9,747.1,503.6L747.1,503.6z"/>
		<path id="XMLID_33_" class="st21" d="M640.6,856.7c14.1-34.7,38-60.1,39.4-106.9c0.1-4.1,0.1-8.4-0.2-12.9
			c0.5-0.8,0.9-1.6,1.3-2.4c3.5-6.8,5.2-12.6,5.7-17.7c1.4-15.1-8.6-23.2-18.2-27.7c-4.1-1.9-8.5-2.6-12.8-2.1
			c7.4,4.2,15.1,10.2,17.4,18c1.8,6.3,0,10.9-2.3,15.2c-3.4,6.5-8,12.5-3.1,23.5C676,762,647,824.9,638.4,846
			c-2.8,6.9-9.7,10-17.6,10.9c-1.1,0.1-2.2,0.2-3.4,0.3c0,0.1-0.1,0.2-0.1,0.3c0.4-0.1,0.9-0.2,1.3-0.3c0.7-0.1,1.4,0,2.2,0.2
			c3.8,1.1,8,5.6,10.7,9c1.4,1.8,2.3,3.3,2.6,3.9c0,0,5.6-0.7,8.9-1.1C642.3,866,641.5,861.2,640.6,856.7L640.6,856.7z"/>
		<path id="XMLID_32_" class="st21" d="M894.1,749.8c2.3,43.2,24.1,71.9,37,107.2c-0.9,4.7-1.9,9.9-2.4,13.1
			c3.2,0.4,8.9,1.1,8.9,1.1c0.3-0.6,1.2-2.1,2.6-3.9c1.8-2.3,4.4-5.2,7-7.1c-2.7,0.1-5.5-1.4-6.5-7.2c-0.2-1.2-0.7-3-1.3-5.1
			c-5.9-19.6-28-73.8-28.2-89.2c-0.2-17.2,10.2-27.6,5.1-34.4c-0.8-1.1-1.8-2.2-2.8-3.4c-5.8-6.4-14.4-14.3-11.9-20.8
			c2.9-7.7,5.8-11.6,5.8-11.6c-1.4,0.4-2.8,0.9-4.2,1.5c-10.3,4.8-22.2,11.5-17.4,26.7c1.3,4.1,3.8,8.8,7.9,14.3
			c0.2,0.3,0.5,0.6,0.7,1C893.8,738.2,893.8,744.1,894.1,749.8L894.1,749.8z"/>
		<path id="XMLID_30_" class="st23" d="M677.3,423.4c5.7-10.3,10.8-11.6,21.7-11.9C690.9,416.5,686.1,419.5,677.3,423.4L677.3,423.4
			z"/>
		<path id="XMLID_29_" class="st23" d="M686.7,425.3c2.3-1.2,3.5-2.5,6-4.1c0.9-0.6,1-0.8,2.1-1.3
			C697.8,424.4,686.5,429.1,686.7,425.3L686.7,425.3z"/>
		<path id="XMLID_27_" class="st21" d="M715.7,420.2c-2.9,4.3-9.4,13.8-9.4,13.8l0.5,7.2c1.7-0.2,3.4-0.3,5.1-0.4
			c5.6-0.3,10.3-0.5,12.7-3.2c1.7-2,0.8-9.4-1-17.7c-0.8-3.9-1.9-7.9-2.9-11.6L708,384.4c-4.2,2.3-19.5,19.1-36.9,21.2
			c-2.1,0.2-4.2,0.4-6.2,0.5c0.1,1.5,0.2,2.9,0.3,4.4c5.1-0.2,11.8-1.4,20.3-4.8c18.4-7.3,23-12.3,23.7-10.6
			C709.9,396.7,718.6,415.8,715.7,420.2L715.7,420.2z"/>
		<path id="XMLID_26_" class="st22" d="M680,744.3c30.6-6.7,78.7-16.6,101.1-16.1c22,0.5,78.7,9.5,112.7,15.2
			c0-3.7,0.1-7.5,0.3-11.4c-0.2-0.3-0.5-0.6-0.7-1c-27.9,0.2-97.8-8-108.6-10.7c-10.5-2.6-77.9,9.3-103.9,14.1
			c-0.4,0.8-0.9,1.6-1.3,2.4C679.9,739.4,680,741.9,680,744.3L680,744.3z"/>
		<path id="XMLID_25_" class="st22" d="M829,520.6l-8.1-27.1c0,0,7.8,33.7,6.1,53.1c-1.7,19.3-25.6,35.6-22.3,35.8
			c3.4,0.2,19.7,3.5,28.6-4.8C835.2,570,838.7,549.9,829,520.6L829,520.6z"/>
		<path id="XMLID_24_" class="st31" d="M877.7,513.9c9.9,6.5,35.5,31.7,40.6,45c5.1,13.3-32.2,60-21.5,59.3
			c10.6-0.7,37.5-30.7,35.8-46.7c-1.3-12.2-26-47.7-37.5-63.6C882.6,490.5,871.4,509.8,877.7,513.9L877.7,513.9z"/>
		<path id="XMLID_22_" class="st31" d="M651.2,570c-3.9-6.3-13.3-18.6-13.3-18.6c-4,7.3-5.6,12.2-9.4,29.3l-1.2,5.3l-53.9-28.3
			l-10.4,4.1c0,0,63.4,35.3,67.3,34.4c3.9-1,24.7-21.4,24.7-21.4L651.2,570z"/>
		<path id="XMLID_21_" class="st21" d="M729.8,398.6c1.6-2.7,3.9-4.3,6-3c2.1,1.3,3.8,15.6,2.8,16.9c-1,1.3-5.9,1.2-6.5-1.2
			c-0.5-2.4,1.2-3.3,0.7-5.3c-0.5-2-2.8-0.8-3.3-3.4C729,400,729.8,398.6,729.8,398.6L729.8,398.6z"/>
		<path id="XMLID_20_" class="st23" d="M476.4,865.2h40.7c1.8-11.6,11.9-20.5,24-20.5c13.4,0,24.3,10.9,24.3,24.3
			c0,13.4-10.9,24.3-24.3,24.3c-12.1,0-22.2-8.9-24-20.5h-40.7c-1.8,11.6-11.9,20.5-24,20.5c-13.4,0-24.3-10.9-24.3-24.3
			c0-13.4,10.9-24.3,24.3-24.3C464.5,844.6,474.6,853.5,476.4,865.2L476.4,865.2z"/>
		<path id="XMLID_19_" class="st32" d="M446.8,848.5c-2.4,0.5-11,5.1-13.5,15.1c-2.5,10,3.9,18.9,11.9,17.4c8-1.5,1.2-15,4.7-22.5
			c3.5-7.5,10.5-6.9,7.3-9.9C453.8,845.6,446.8,848.5,446.8,848.5L446.8,848.5z"/>
		<path id="XMLID_17_" class="st32" d="M536,848c-2.4,0.5-11,5.1-13.5,15.1c-2.5,10,3.9,18.9,11.8,17.4c8-1.5,1.2-15,4.7-22.5
			c3.5-7.5,10.5-6.9,7.3-9.9C543,845.1,536,848,536,848L536,848z"/>
	</g>
</g>
</svg>
