<?xml version="1.0" encoding="utf-8"?>
<!-- Generator: Adobe Illustrator 19.0.0, SVG Export Plug-In . SVG Version: 6.00 Build 0)  -->
<svg version="1.1" id="OBJECTS" xmlns="http://www.w3.org/2000/svg" xmlns:xlink="http://www.w3.org/1999/xlink" x="0px" y="0px"
	 viewBox="256 -208.9 1024 928.9" style="enable-background:new 256 -208.9 1024 928.9;" xml:space="preserve">
<style type="text/css">
	.st0{fill:#39ACE7;}
	.st1{fill:#0784B5;}
	.st2{fill:#303030;}
	.st3{fill:none;stroke:#231915;stroke-width:5.663900e-002;stroke-miterlimit:10;}
	.st4{fill:#303030;stroke:#231915;stroke-width:5.663900e-002;stroke-miterlimit:10;}
	.st5{opacity:0.5;}
	.st6{fill:#414C50;}
	.st7{fill:#748589;}
	.st8{opacity:0.2;fill:#2D383C;enable-background:new    ;}
	.st9{opacity:0.2;fill:#FFFFFF;enable-background:new    ;}
	.st10{fill:none;}
	.st11{fill:#131313;}
	.st12{fill:#242424;}
	.st13{fill:#281F1E;stroke:#231915;stroke-width:5.663900e-002;stroke-miterlimit:10;}
	.st14{fill:#3E3938;}
	.st15{fill:#281F1E;}
	.st16{fill:#F5B090;}
	.st17{fill:#E79977;}
	.st18{fill:#231915;}
	.st19{fill:#ED9C78;}
	.st20{fill:#EC916A;}
	.st21{fill:#292424;}
	.st22{fill:#231915;stroke:#231915;stroke-width:0.1431;stroke-miterlimit:10;}
	.st23{fill:#373330;}
	.st24{fill:#2D2222;stroke:#231915;stroke-width:0.1431;stroke-miterlimit:10;}
	.st25{fill:#F6B79C;}
	.st26{fill:#281F1E;stroke:#231915;stroke-width:0.1431;stroke-miterlimit:10;}
</style>
<path id="XMLID_28_" class="st0" d="M1280,720v-880.6c-122.1-57.4-299.1-39.1-397.5,57.1C852-73.6,826-37.4,789.3-16.7
	C708.9,28.9,595-9.2,529.4,57.8c-56.6,57.9-41.5,159.9-83.8,230.1c-18.3,30.5-43,56.7-69.9,79c-98.3,81.3-85.5,289.2,12.7,353.1
	H1280z"/>
<path id="XMLID_117_" class="st1" d="M1280,720v-856.3c-122.3-56.9-277-32.2-375.6,63.2C873.8-43.5,847.7-7.6,811,13
	c-80.5,45.2-194.7,7.4-260.4,73.9c-56.7,57.4-41.6,158.6-84,228.3c-18.4,30.2-43.1,56.2-70.1,78.3c-98.4,80.6-108.4,263-9.9,326.4
	L1280,720L1280,720z"/>
<g id="XMLID_31_">
	<g id="XMLID_819_">
		<g id="XMLID_824_">
			<g id="XMLID_879_">
				<g id="XMLID_886_">
					<path id="XMLID_887_" class="st2" d="M1247.6-0.2v-71c0-25.3-20-46-45-47.1c-0.1,0-0.2,0-0.3,0c-0.6,0-1.2,0-1.8,0
						s-1.2,0-1.8,0c-0.1,0-0.2,0-0.3,0c-25,1.1-45,21.8-45,47.1c0,1,0,2,0.1,2.9h-0.1v48.2c1-0.3,2-0.3,3-0.1v-34.5
						c6.7,17.9,24,30.7,44.2,30.7c20.2,0,37.5-12.8,44.2-30.7V0C1245.6-0.4,1246.6-0.4,1247.6-0.2z M1198.7-115.4c0.6,0,1.1,0,1.7,0
						s1.1,0,1.7,0c17.3,0.9,31.2,15.3,31.2,32.8c0,18.1-14.7,32.9-32.9,32.9c-18.1,0-32.9-14.7-32.9-32.9
						C1167.5-100.2,1181.4-114.5,1198.7-115.4z M1168.8-99.4c-2.7,5-4.2,10.7-4.2,16.8c0,19.8,16.1,35.8,35.8,35.8
						c19.8,0,35.8-16.1,35.8-35.8c0-6.1-1.5-11.8-4.2-16.8c4.8,6.5,7.6,14.5,7.6,23.2c0,21.6-17.6,39.2-39.2,39.2
						c-21.6,0-39.2-17.6-39.2-39.2C1161.2-84.9,1164-92.9,1168.8-99.4z M1200.4-27.1c-24.4,0-44.2-19.8-44.2-44.2
						c0-7.1,1.7-13.7,4.6-19.7c-1.7,4.6-2.6,9.5-2.6,14.7c0,23.3,18.9,42.2,42.2,42.2s42.2-18.9,42.2-42.2c0-5.2-0.9-10.1-2.6-14.7
						c3,5.9,4.6,12.6,4.6,19.7C1244.6-46.9,1224.8-27.1,1200.4-27.1z"/>
				</g>
				<g id="XMLID_880_">
					<path id="XMLID_881_" class="st3" d="M1247.6-0.2v-71c0-25.3-20-46-45-47.1c-0.1,0-0.2,0-0.3,0c-0.6,0-1.2,0-1.8,0
						s-1.2,0-1.8,0c-0.1,0-0.2,0-0.3,0c-25,1.1-45,21.8-45,47.1c0,1,0,2,0.1,2.9h-0.1v48.2c1-0.3,2-0.3,3-0.1v-34.5
						c6.7,17.9,24,30.7,44.2,30.7c20.2,0,37.5-12.8,44.2-30.7V0C1245.6-0.4,1246.6-0.4,1247.6-0.2z M1198.7-115.4c0.6,0,1.1,0,1.7,0
						s1.1,0,1.7,0c17.3,0.9,31.2,15.3,31.2,32.8c0,18.1-14.7,32.9-32.9,32.9c-18.1,0-32.9-14.7-32.9-32.9
						C1167.5-100.2,1181.4-114.5,1198.7-115.4z M1168.8-99.4c-2.7,5-4.2,10.7-4.2,16.8c0,19.8,16.1,35.8,35.8,35.8
						c19.8,0,35.8-16.1,35.8-35.8c0-6.1-1.5-11.8-4.2-16.8c4.8,6.5,7.6,14.5,7.6,23.2c0,21.6-17.6,39.2-39.2,39.2
						c-21.6,0-39.2-17.6-39.2-39.2C1161.2-84.9,1164-92.9,1168.8-99.4z M1200.4-27.1c-24.4,0-44.2-19.8-44.2-44.2
						c0-7.1,1.7-13.7,4.6-19.7c-1.7,4.6-2.6,9.5-2.6,14.7c0,23.3,18.9,42.2,42.2,42.2s42.2-18.9,42.2-42.2c0-5.2-0.9-10.1-2.6-14.7
						c3,5.9,4.6,12.6,4.6,19.7C1244.6-46.9,1224.8-27.1,1200.4-27.1z"/>
				</g>
			</g>
			<g id="XMLID_876_">
				<path id="XMLID_878_" class="st2" d="M1149.4,3.7h11.1c0-1.2,0-2.3,0-3.5h-11.1C1149.4,1.4,1149.4,2.5,1149.4,3.7z"/>
				<path id="XMLID_877_" class="st3" d="M1149.4,3.7h11.1c0-1.2,0-2.3,0-3.5h-11.1C1149.4,1.4,1149.4,2.5,1149.4,3.7z"/>
			</g>
			<g id="XMLID_873_">
				<path id="XMLID_875_" class="st2" d="M1149.4-0.9h11.1c0-2.6,0-5.1,0-7.7h-11.1C1149.4-6,1149.4-3.5,1149.4-0.9z"/>
				<path id="XMLID_874_" class="st3" d="M1149.4-0.9h11.1c0-2.6,0-5.1,0-7.7h-11.1C1149.4-6,1149.4-3.5,1149.4-0.9z"/>
			</g>
			<g id="XMLID_870_">
				<path id="XMLID_872_" class="st2" d="M1149.4,5.1c0,7.2,11.1,7.2,11.1,0c0-0.1,0-0.2,0-0.3h-11.1
					C1149.4,4.9,1149.4,5,1149.4,5.1z"/>
				<path id="XMLID_871_" class="st3" d="M1149.4,5.1c0,7.2,11.1,7.2,11.1,0c0-0.1,0-0.2,0-0.3h-11.1
					C1149.4,4.9,1149.4,5,1149.4,5.1z"/>
			</g>
			<g id="XMLID_867_">
				<path id="XMLID_869_" class="st2" d="M1149.4-9.7h11.1c0-1.2,0-2.3,0-3.5h-11.1C1149.4-12,1149.4-10.8,1149.4-9.7z"/>
				<path id="XMLID_868_" class="st3" d="M1149.4-9.7h11.1c0-1.2,0-2.3,0-3.5h-11.1C1149.4-12,1149.4-10.8,1149.4-9.7z"/>
			</g>
			<g id="XMLID_864_">
				<path id="XMLID_866_" class="st2" d="M1153.2-20.2c-2.1,0.6-3.8,2.3-3.8,5.1c0,0.3,0,0.5,0,0.8h11.1c0-0.3,0-0.5,0-0.8
					c0-3.1-2-4.8-4.3-5.3C1155.2-20.5,1154.2-20.4,1153.2-20.2z"/>
				<path id="XMLID_865_" class="st3" d="M1153.2-20.2c-2.1,0.6-3.8,2.3-3.8,5.1c0,0.3,0,0.5,0,0.8h11.1c0-0.3,0-0.5,0-0.8
					c0-3.1-2-4.8-4.3-5.3C1155.2-20.5,1154.2-20.4,1153.2-20.2z"/>
			</g>
			<g id="XMLID_861_">
				<path id="XMLID_863_" class="st2" d="M1149.4,4.8h11.1c0-0.4,0-0.7,0-1.1h-11.1C1149.4,4,1149.4,4.4,1149.4,4.8z"/>
				<path id="XMLID_862_" class="st3" d="M1149.4,4.8h11.1c0-0.4,0-0.7,0-1.1h-11.1C1149.4,4,1149.4,4.4,1149.4,4.8z"/>
			</g>
			<g id="XMLID_858_">
				<path id="XMLID_860_" class="st2" d="M1149.4,0.2h11.1c0-0.4,0-0.7,0-1.1h-11.1C1149.4-0.5,1149.4-0.2,1149.4,0.2z"/>
				<path id="XMLID_859_" class="st3" d="M1149.4,0.2h11.1c0-0.4,0-0.7,0-1.1h-11.1C1149.4-0.5,1149.4-0.2,1149.4,0.2z"/>
			</g>
			<g id="XMLID_855_">
				<path id="XMLID_857_" class="st2" d="M1149.4-8.6h11.1c0-0.4,0-0.7,0-1.1h-11.1C1149.4-9.3,1149.4-9,1149.4-8.6z"/>
				<path id="XMLID_856_" class="st3" d="M1149.4-8.6h11.1c0-0.4,0-0.7,0-1.1h-11.1C1149.4-9.3,1149.4-9,1149.4-8.6z"/>
			</g>
			<g id="XMLID_852_">
				<path id="XMLID_854_" class="st2" d="M1149.4-14.3c0,0.4,0,0.7,0,1.1h11.1c0-0.4,0-0.7,0-1.1H1149.4z"/>
				<path id="XMLID_853_" class="st3" d="M1149.4-14.3c0,0.4,0,0.7,0,1.1h11.1c0-0.4,0-0.7,0-1.1H1149.4z"/>
			</g>
			<g id="XMLID_849_">
				<path id="XMLID_851_" class="st2" d="M1240.8,23.7h11.1c0-1.2,0-2.3,0-3.5h-11.1C1240.8,21.4,1240.8,22.6,1240.8,23.7z"/>
				<path id="XMLID_850_" class="st3" d="M1240.8,23.7h11.1c0-1.2,0-2.3,0-3.5h-11.1C1240.8,21.4,1240.8,22.6,1240.8,23.7z"/>
			</g>
			<g id="XMLID_846_">
				<path id="XMLID_848_" class="st2" d="M1247.6-0.2c-1-0.2-2-0.1-3,0.1c-2.1,0.6-3.8,2.3-3.8,5.1c0,0.3,0,0.5,0,0.8h11.1
					c0-0.3,0-0.5,0-0.8C1251.9,2,1249.9,0.2,1247.6-0.2z"/>
				<path id="XMLID_847_" class="st3" d="M1247.6-0.2c-1-0.2-2-0.1-3,0.1c-2.1,0.6-3.8,2.3-3.8,5.1c0,0.3,0,0.5,0,0.8h11.1
					c0-0.3,0-0.5,0-0.8C1251.9,2,1249.9,0.2,1247.6-0.2z"/>
			</g>
			<g id="XMLID_843_">
				<path id="XMLID_845_" class="st2" d="M1240.8,25.1c0,7.2,11.1,7.2,11.1,0c0-0.1,0-0.2,0-0.3h-11.1
					C1240.8,24.9,1240.8,25,1240.8,25.1z"/>
				<path id="XMLID_844_" class="st3" d="M1240.8,25.1c0,7.2,11.1,7.2,11.1,0c0-0.1,0-0.2,0-0.3h-11.1
					C1240.8,24.9,1240.8,25,1240.8,25.1z"/>
			</g>
			<g id="XMLID_840_">
				<path id="XMLID_842_" class="st2" d="M1240.8,6.9c0,1.2,0,2.3,0,3.5h11.1c0-1.2,0-2.3,0-3.5H1240.8z"/>
				<path id="XMLID_841_" class="st3" d="M1240.8,6.9c0,1.2,0,2.3,0,3.5h11.1c0-1.2,0-2.3,0-3.5H1240.8z"/>
			</g>
			<g id="XMLID_837_">
				<path id="XMLID_839_" class="st2" d="M1240.8,11.5c0,2.6,0,5.1,0,7.7h11.1c0-2.6,0-5.1,0-7.7H1240.8z"/>
				<path id="XMLID_838_" class="st3" d="M1240.8,11.5c0,2.6,0,5.1,0,7.7h11.1c0-2.6,0-5.1,0-7.7H1240.8z"/>
			</g>
			<g id="XMLID_834_">
				<path id="XMLID_836_" class="st2" d="M1240.8,24.8h11.1c0-0.4,0-0.7,0-1.1h-11.1C1240.8,24.1,1240.8,24.5,1240.8,24.8z"/>
				<path id="XMLID_835_" class="st3" d="M1240.8,24.8h11.1c0-0.4,0-0.7,0-1.1h-11.1C1240.8,24.1,1240.8,24.5,1240.8,24.8z"/>
			</g>
			<g id="XMLID_831_">
				<path id="XMLID_833_" class="st2" d="M1240.8,20.3h11.1c0-0.4,0-0.7,0-1.1h-11.1C1240.8,19.5,1240.8,19.9,1240.8,20.3z"/>
				<path id="XMLID_832_" class="st3" d="M1240.8,20.3h11.1c0-0.4,0-0.7,0-1.1h-11.1C1240.8,19.5,1240.8,19.9,1240.8,20.3z"/>
			</g>
			<g id="XMLID_828_">
				<path id="XMLID_830_" class="st2" d="M1240.8,10.4c0,0.4,0,0.7,0,1.1h11.1c0-0.4,0-0.7,0-1.1H1240.8z"/>
				<path id="XMLID_829_" class="st3" d="M1240.8,10.4c0,0.4,0,0.7,0,1.1h11.1c0-0.4,0-0.7,0-1.1H1240.8z"/>
			</g>
			<g id="XMLID_825_">
				<path id="XMLID_827_" class="st2" d="M1240.8,5.8c0,0.4,0,0.7,0,1.1h11.1c0-0.4,0-0.7,0-1.1H1240.8z"/>
				<path id="XMLID_826_" class="st3" d="M1240.8,5.8c0,0.4,0,0.7,0,1.1h11.1c0-0.4,0-0.7,0-1.1H1240.8z"/>
			</g>
		</g>
		<g id="XMLID_820_">
			<path id="XMLID_823_" class="st4" d="M1203.7-130.4h-6.7c-1.3,0-2.4,1.1-2.4,2.4v0.8c0,1.2,0.9,2.2,2.1,2.4c0,0,0,0,0,0.1
				c0,3.6,0,7.1,0,10.7c0,4.8,7.4,4.8,7.4,0c0-3.6,0-7.1,0-10.7c0,0,0,0,0-0.1c1.1-0.2,2-1.2,2-2.4v-0.8
				C1206.1-129.3,1205.1-130.4,1203.7-130.4z"/>
			<g id="XMLID_821_" class="st5">
				<path id="XMLID_822_" class="st4" d="M1197.7-116.9c0,1.7,0.3,5.1,2.7,5c0.6,0,0.6-0.9,0-0.9c-1.6,0-1.7-3-1.7-4.1
					C1198.6-117.5,1197.7-117.5,1197.7-116.9L1197.7-116.9z"/>
			</g>
		</g>
	</g>
</g>
<path id="XMLID_135_" class="st6" d="M1280,232.1V720H386.6c-98.5-63.4-88.5-245.9,9.9-326.4c27-22.1,51.7-48.1,70.1-78.3
	c15.1-24.9,22.9-53.7,29.3-83.2H1280z"/>
<g id="XMLID_201_">
	<g id="XMLID_563_">
		<g id="XMLID_605_">
			<g id="XMLID_606_">
				<path id="XMLID_607_" class="st4" d="M1034.3-25.9c1,0,2-0.2,2.9-0.5l51.2-19.2c4.3-1.6,6.5-6.5,4.9-10.8s-6.5-6.5-10.8-4.9
					l-51.2,19.2c-4.3,1.6-6.5,6.5-4.9,10.8C1027.7-28,1030.9-25.9,1034.3-25.9z"/>
			</g>
		</g>
		<g id="XMLID_602_">
			<g id="XMLID_603_">
				<path id="XMLID_604_" class="st4" d="M1006,152.5c2.5,0,4.8-1.6,5.6-4l64.1-194.4c1-3.1-0.7-6.4-3.7-7.4c-3.1-1-6.4,0.7-7.4,3.7
					l-64.1,194.3c-1,3.1,0.7,6.4,3.7,7.4C1004.8,152.4,1005.4,152.5,1006,152.5z"/>
			</g>
		</g>
		<g id="XMLID_599_">
			<g id="XMLID_600_">
				<path id="XMLID_601_" class="st4" d="M1017.3-9.8h41.6c2.3,0,4.2-1.9,4.2-4.2s-1.9-4.2-4.2-4.2h-41.6c-5.8,0-11-2.9-14.1-7.8
					c-3.1-4.9-3.4-10.9-0.9-16.1l20.1-42c1-2.1,0.1-4.6-2-5.6s-4.6-0.1-5.6,2l-20.1,42c-3.7,7.8-3.2,16.9,1.4,24.2
					C1000.7-14.2,1008.7-9.8,1017.3-9.8z"/>
			</g>
		</g>
		<g id="XMLID_596_">
			<path id="XMLID_598_" class="st2" d="M1047.5,9.2l7.8,2.2c4.4,1.2,9.1-1.3,10.3-5.8l0,0c1.2-4.4-1.3-9.1-5.8-10.3l-7.8-2.2
				c-4.4-1.2-9.1,1.3-10.3,5.8l0,0C1040.5,3.4,1043.1,8,1047.5,9.2z"/>
			<path id="XMLID_597_" class="st3" d="M1047.5,9.2l7.8,2.2c4.4,1.2,9.1-1.3,10.3-5.8l0,0c1.2-4.4-1.3-9.1-5.8-10.3l-7.8-2.2
				c-4.4-1.2-9.1,1.3-10.3,5.8l0,0C1040.5,3.4,1043.1,8,1047.5,9.2z"/>
		</g>
		<g id="XMLID_593_">
			<path id="XMLID_595_" class="st2" d="M1015.4,104.8l7.8,2.2c4.4,1.2,9.1-1.3,10.3-5.8l0,0c1.2-4.4-1.3-9.1-5.8-10.3l-7.8-2.2
				c-4.4-1.2-9.1,1.3-10.3,5.8l0,0C1008.4,98.9,1011,103.5,1015.4,104.8z"/>
			<path id="XMLID_594_" class="st3" d="M1015.4,104.8l7.8,2.2c4.4,1.2,9.1-1.3,10.3-5.8l0,0c1.2-4.4-1.3-9.1-5.8-10.3l-7.8-2.2
				c-4.4-1.2-9.1,1.3-10.3,5.8l0,0C1008.4,98.9,1011,103.5,1015.4,104.8z"/>
		</g>
		<g id="XMLID_590_">
			<g id="XMLID_591_">
				<path id="XMLID_592_" class="st4" d="M903.1,129.8c0.3,0,0.7,0,1-0.1c3.2-0.6,5.3-3.6,4.8-6.8L890.7,20.5
					c-0.6-3.2-3.6-5.3-6.8-4.8c-3.2,0.6-5.3,3.6-4.8,6.8l18.2,102.4C897.9,127.8,900.4,129.8,903.1,129.8z"/>
			</g>
		</g>
		<g id="XMLID_587_">
			<path id="XMLID_589_" class="st2" d="M911.9,21.5h-33.5c-1.6,0-3.2-0.4-4.7-1.1c-4.4-2.2-13.6-7.1-13.5-9.9
				c0.1-3.7-2.2-15.2,3.8-15.4s17,8.5,32.8,11s27,2,25,8.3c0,0.1,0,0.1-0.1,0.2C920.4,18.8,916.3,21.5,911.9,21.5z"/>
			<path id="XMLID_588_" class="st3" d="M911.9,21.5h-33.5c-1.6,0-3.2-0.4-4.7-1.1c-4.4-2.2-13.6-7.1-13.5-9.9
				c0.1-3.7-2.2-15.2,3.8-15.4s17,8.5,32.8,11s27,2,25,8.3c0,0.1,0,0.1-0.1,0.2C920.4,18.8,916.3,21.5,911.9,21.5z"/>
		</g>
		<g id="XMLID_584_">
			<path id="XMLID_586_" class="st2" d="M1089.9,182.7L1089.9,182.7c0-13.1-8.8-24.6-21.4-28l-147-39.9
				c-31.4-8.5-62.3,15.1-62.3,47.6l0,0c0,27.3,22.1,49.3,49.3,49.3h152.3C1077,211.7,1089.9,198.7,1089.9,182.7z"/>
			<path id="XMLID_585_" class="st3" d="M1089.9,182.7L1089.9,182.7c0-13.1-8.8-24.6-21.4-28l-147-39.9
				c-31.4-8.5-62.3,15.1-62.3,47.6l0,0c0,27.3,22.1,49.3,49.3,49.3h152.3C1077,211.7,1089.9,198.7,1089.9,182.7z"/>
		</g>
		<circle id="XMLID_583_" class="st7" cx="911.5" cy="166.1" r="34.1"/>
		<g id="XMLID_579_">
			<circle id="XMLID_582_" class="st2" cx="911.5" cy="166.1" r="27.6"/>
			<circle id="XMLID_581_" class="st3" cx="911.5" cy="166.1" r="27.6"/>
		</g>
		<circle id="XMLID_578_" class="st7" cx="911.5" cy="166.1" r="11.5"/>
		<g id="XMLID_576_">
			<path id="XMLID_577_" class="st7" d="M911.5,170.2c1.4,0,2.8-0.7,3.6-2l22.1-35.6c1.2-2,0.6-4.6-1.3-5.8c-2-1.2-4.6-0.6-5.8,1.3
				L908,163.8c-1.2,2-0.6,4.6,1.3,5.8C910,170,910.8,170.2,911.5,170.2z"/>
		</g>
		<g id="XMLID_574_">
			<path id="XMLID_575_" class="st7" d="M944.2,141.1c1.4,0,2.7-0.7,3.5-1.9c1.3-1.9,0.7-4.5-1.2-5.8l-21.2-13.9
				c-1.9-1.3-4.5-0.7-5.8,1.2c-1.3,1.9-0.7,4.5,1.2,5.8l21.2,13.9C942.6,140.9,943.4,141.1,944.2,141.1z"/>
		</g>
		<g id="XMLID_571_">
			<rect id="XMLID_573_" x="859.3" y="211.7" class="st2" width="230.7" height="8.7"/>
			<rect id="XMLID_572_" x="859.3" y="211.7" class="st3" width="230.7" height="8.7"/>
		</g>
		<g id="XMLID_568_">
			<path id="XMLID_570_" class="st2" d="M1082.8,232.1h22c1.5,0,2.6-1.2,2.6-2.6v-17.4c0-1.5-1.2-2.6-2.6-2.6h-22
				c-1.5,0-2.6,1.2-2.6,2.6v17.3C1080.2,230.9,1081.4,232.1,1082.8,232.1z"/>
			<path id="XMLID_569_" class="st3" d="M1082.8,232.1h22c1.5,0,2.6-1.2,2.6-2.6v-17.4c0-1.5-1.2-2.6-2.6-2.6h-22
				c-1.5,0-2.6,1.2-2.6,2.6v17.3C1080.2,230.9,1081.4,232.1,1082.8,232.1z"/>
		</g>
		<g id="XMLID_564_">
			<path id="XMLID_566_" class="st2" d="M840.7,232.1h22c1.5,0,2.6-1.2,2.6-2.6v-17.4c0-1.5-1.2-2.6-2.6-2.6h-22
				c-1.5,0-2.6,1.2-2.6,2.6v17.3C838,230.9,839.2,232.1,840.7,232.1z"/>
			<path id="XMLID_565_" class="st3" d="M840.7,232.1h22c1.5,0,2.6-1.2,2.6-2.6v-17.4c0-1.5-1.2-2.6-2.6-2.6h-22
				c-1.5,0-2.6,1.2-2.6,2.6v17.3C838,230.9,839.2,232.1,840.7,232.1z"/>
		</g>
	</g>
</g>
<g id="XMLID_487_">
	<ellipse id="XMLID_1078_" class="st8" cx="491.5" cy="656.5" rx="84.1" ry="14.8"/>
	<g id="XMLID_1080_">
		<g id="XMLID_1089_">
			<circle id="XMLID_1587_" class="st0" cx="494.2" cy="541.6" r="111.1"/>
			<path id="XMLID_1590_" class="st1" d="M442.4,443.3c-15.3,19-24.5,43.2-24.5,69.6c0,61.4,49.8,111.1,111.1,111.1
				c18.7,0,36.3-4.6,51.8-12.8c-20.4,25.3-51.6,41.5-86.6,41.5c-61.4,0-111.1-49.8-111.1-111.1C383,499,407.1,461.9,442.4,443.3z"/>
		</g>
		<path id="XMLID_1591_" class="st9" d="M531,466.8c-6.8,8.8-1.4,24.3,12.1,34.8c13.5,10.4,29.9,11.8,36.7,3
			c6.8-8.8,1.4-24.3-12.1-34.8C554.3,459.4,537.8,458.1,531,466.8z"/>
	</g>
</g>
<rect id="XMLID_1592_" x="256" y="-196.2" class="st10" width="1024" height="916.2"/>
<g id="XMLID_153_">
	<rect id="XMLID_126_" x="665.7" y="378.4" class="st11" width="232" height="12.3"/>
	<rect id="XMLID_8_" x="664.2" y="378.4" class="st2" width="232" height="6.2"/>
	<path id="XMLID_7_" class="st12" d="M628.7,390.2c0,1.9-1.6,3.5-3.5,3.5s-3.5-1.6-3.5-3.5v-11.3c0-1.9,1.6-3.5,3.5-3.5
		s3.5,1.6,3.5,3.5V390.2z"/>
	<path id="XMLID_122_" class="st13" d="M652.8,433.3c0,3.7-2.1,6.8-4.9,6.8h-16.3c-2.7,0-4.9-2.9-4.9-6.8v-97.5
		c0-3.7,2.1-6.8,4.9-6.8h16.3c2.7,0,4.9,2.9,4.9,6.8V433.3z"/>
	<path id="XMLID_121_" class="st4" d="M639,329.1h-7.5c-2.7,0-4.9,2.9-4.9,6.8v97.5c0,3.7,2.1,6.8,4.9,6.8h7.5V329.1z"/>
	<path id="XMLID_6_" class="st13" d="M678.8,433.4c0,3.7-2.1,6.8-4.9,6.8h-16.3c-2.7,0-4.9-3-4.9-6.8v-97.8c0-3.7,2.1-6.8,4.9-6.8
		h16.3c2.7,0,4.9,3,4.9,6.8V433.4z"/>
	<path id="XMLID_5_" class="st4" d="M665,329h-7.5c-2.7,0-4.9,3-4.9,6.8v97.8c0,3.7,2.1,6.8,4.9,6.8h7.5V329z"/>
	<path id="XMLID_118_" class="st12" d="M942.6,390.2c0,1.9,1.6,3.5,3.5,3.5s3.5-1.6,3.5-3.5v-11.3c0-1.9-1.6-3.5-3.5-3.5
		s-3.5,1.6-3.5,3.5V390.2z"/>
	<path id="XMLID_4_" class="st13" d="M918.6,433.2c0,3.7,2.1,6.8,4.9,6.8h16.3c2.7,0,4.9-2.9,4.9-6.8v-97.7c0-3.7-2.1-6.8-4.9-6.8
		h-16.3c-2.7,0-4.9,3-4.9,6.8V433.2z"/>
	<path id="XMLID_3_" class="st4" d="M932.4,329h7.5c2.7,0,4.9,2.9,4.9,6.8v97.7c0,3.7-2.1,6.8-4.9,6.8h-7.5V329z"/>
	<path id="XMLID_9_" class="st13" d="M892.5,433.4c0,3.7,2.1,6.8,4.9,6.8h16.3c2.7,0,4.9-3,4.9-6.8v-97.8c0-3.7-2.1-6.8-4.9-6.8
		h-16.3c-2.7,0-4.9,3-4.9,6.8V433.4z"/>
	<path id="XMLID_10_" class="st4" d="M906.3,329h7.5c2.7,0,4.9,3,4.9,6.8v97.8c0,3.7-2.1,6.8-4.9,6.8h-7.5V329z"/>
</g>
<path id="XMLID_152_" class="st8" d="M1255.5,694.3H647.1c-3.9,0-7-3.1-7-7v-22.1c0-3.9,3.1-7,7-7h608.4c3.9,0,7,3.1,7,7v22.1
	C1262.5,691.2,1259.3,694.3,1255.5,694.3z"/>
<g id="XMLID_16_">
	<rect id="XMLID_151_" x="1126.8" y="532.9" class="st14" width="14.2" height="148.1"/>
	<rect id="XMLID_150_" x="960.2" y="532.9" class="st14" width="14.2" height="148.1"/>
	<rect id="XMLID_147_" x="964.8" y="532.9" class="st15" width="14.2" height="148.1"/>
	<rect id="XMLID_146_" x="1123.8" y="532.9" class="st15" width="14.2" height="148.1"/>
	<path id="XMLID_145_" class="st16" d="M963.7,346.6c-7-9.9-25-55.2-25-55.2c-16.7,15.3-56,50.4-58,76.2
		c-45-26.3-79.7-31.2-79.7-31.2s-36.3-13.1-13.1,10.3c52.2,59,72.1,53.2,88.6,65.6c10.2,7.6,44.2-21.9,56.1-30
		C950.9,369.9,963.7,346.6,963.7,346.6L963.7,346.6z"/>
	<rect id="XMLID_144_" x="932.9" y="507.9" class="st0" width="224.2" height="33"/>
	<path id="XMLID_143_" class="st14" d="M993.4,447c-11.6,1.5-85.4,27.9-94.4,36.6c13.8,2.2,31.6,11.5,27.9,43.8
		c0,0,100.9-19.2,114-16s114.7,14.9,119.8,9.1c5.1-5.8,32.3-27.9,22.9-36.6c-9.4-8.7-91.7-40.8-91.7-40.8
		C1030.4,422.5,1049.8,439.9,993.4,447L993.4,447z"/>
	<path id="XMLID_142_" class="st16" d="M1091.7,311.6c11.8,29.9,51.7,40.7,58.7,43.9c1.6,0.7-14.5,24.1-23.8,46.7
		c-9.3,22.6-15.3,34.1-15.3,34.1s-14.5-1.9-16.4,0.4c-2,2.3,0.2,8.8-0.9,11.9c-1.1,3.1-7.9,8.8-3,13.8c5,5,28.9,12.6,34.6,9.9
		c5.7-2.7,12.1-20.7,12-23.7c-0.1-3.1,2.2-11.1,2.2-11.1s41.9-30.3,51.5-53.6c9.6-23.4,2.6-32.2,0.5-36
		c-2.1-3.8-15.4-29.1-20.9-37.9c-5.5-8.8-26.2-32.2-45.4-45.2C1085.4,237.4,1077.6,275.8,1091.7,311.6L1091.7,311.6z"/>
	<path id="XMLID_140_" class="st17" d="M1091.7,311.6c11.8,29.9,51.7,40.7,58.7,43.9c1.6,0.7-14.5,24.1-23.8,46.7
		c-9.3,22.6-15.3,34.1-15.3,34.1s-14.5-1.9-16.4,0.4c-2,2.3,0.2,8.8-0.9,11.9c-0.5,1.5-2.5,3.7-3.7,6c-0.2,1.1-0.7,2.3-1.1,3.5
		c0,0.8,0.1,1.5,0.4,2.3c1.9-2.4,5-8.4,7.3-10.2c2.8-2,1.1-4,2.7-7.6c1.6-3.6,9.5-1.1,14.2-1.6c4.6-0.5,57.8-79.9,54.2-88.7
		c-3.6-8.7-50-45.9-50-45.9l-32.1-17.1C1086.8,296.4,1088.8,304,1091.7,311.6L1091.7,311.6z"/>
	<path id="XMLID_139_" class="st0" d="M965.5,271c-6.4,4.8-27.9,16.7-39.3,27.9c-11.5,11.2-30.9,36.7-30.9,36.7s34,50.7,39.6,47
		s24.2-13.4,24.2-13.4l16.9,17c0,0,13.2,60.4,16.5,62.7s45,30.5,99.7-3.9c1.1-0.7-2.8-32.3-4.5-67.7c0,0,8.8-30.9-2.7-65.6
		l17.4,17.3c-5.3-2.4,24.8-32.5,41.3-49.5c0,0-23.1-31.7-40.1-43.6c-17-12-54.6-2.7-65.2-1.4C1014.5,237.2,985.1,256.4,965.5,271
		L965.5,271z"/>
	<path id="XMLID_137_" class="st1" d="M1085,311.7l17.4,17.3c-2.9-1.3,5-11.2,15.5-22.6l0,0l-40.9-21.8L1085,311.7z"/>
	<path id="XMLID_136_" class="st1" d="M916.8,365.5c8,10.2,15.6,18.7,18.1,17.1c5.6-3.7,24.2-13.4,24.2-13.4s3.1,5.5,14.3,18.7
		c9.2,22.8,17.3,59.6,20,61.4c2.6,1.7,31.1,20.4,70.8,8.7c-13.6-8.1-53-33.3-55.4-52.5c-2.9-23.2,9.9-32.4,9.9-32.4
		s-28.5,9.7-41.1,1.7s-16.2-24.1-17.9-25.2C958,348.5,916.8,365.5,916.8,365.5L916.8,365.5z"/>
	<path id="XMLID_134_" class="st16" d="M924.5,480.2c-13.2-6.1-28.9,0.7-35.2,14.9c-12.8,28.7-12.2,128.9-12.7,162l16.3,0.5
		c14.3-43.2,46.2-69.7,42.8-129.6C951.7,499.3,937.7,486.3,924.5,480.2L924.5,480.2z"/>
	<path id="XMLID_133_" class="st16" d="M894.4,637.1c0.7,2.2,5.1,26.3,5.1,26.3s-17.1,14.2-19.4,11.6c-2.4-2.5-11.8-15.1-10.7-17.2
		c1.1-2.2,7.5-18,7.5-18L894.4,637.1z"/>
	<path id="XMLID_130_" class="st18" d="M890,661.3c-0.9-2-9.4-13.9-15.4-13.1c-6,0.8-10.2,7.3-10.7,8.3s-1.6,2.7-8,7.1
		c-6.3,4.3-18.7,9.8-21.6,14.3c-2.9,4.5,8.5,7.8,12.9,8.7s29.2-0.5,35.4-2.3c6.2-1.7,16.2,2.8,18.5-0.8c2.4-3.6,1.5-23.9-0.4-23.6
		C898.9,660.3,890,661.3,890,661.3L890,661.3z"/>
	<path id="XMLID_127_" class="st16" d="M1159,481.1c13.2-6.1,28.9,0.7,35.2,14.9c12.8,28.7,12.2,128.9,12.7,162l-16.3,0.5
		c-13.5-45.2-44.3-77.2-40.4-135.5C1129.9,496.6,1145.8,487.3,1159,481.1L1159,481.1z"/>
	<path id="XMLID_123_" class="st16" d="M1189.2,638c-0.7,2.2-5.1,26.3-5.1,26.3s17.1,14.2,19.4,11.6c2.4-2.5,11.8-15.1,10.7-17.2
		c-1.1-2.2-7.5-18-7.5-18L1189.2,638z"/>
	<path id="XMLID_67_" class="st18" d="M1193.5,662.2c0.9-2,9.4-13.9,15.4-13.1c6,0.8,10.2,7.3,10.7,8.3s1.6,2.7,8,7.1
		c6.3,4.3,18.7,9.8,21.6,14.3c2.9,4.5-8.5,7.8-12.9,8.7c-4.3,0.9-29.2-0.5-35.4-2.3c-6.2-1.7-16.2,2.8-18.5-0.8
		c-2.4-3.6-1.5-23.9,0.4-23.6C1184.7,661.2,1193.5,662.2,1193.5,662.2L1193.5,662.2z"/>
	<path id="XMLID_64_" class="st19" d="M964.5,237.7c9.1,15.6,5.7,29.3-4.8,41.2c0,0,9.7,29,43.3,15.7c22.1-8.7,45.2-52.2,34.5-60.2
		c-18-4-35-26.9-48.8-40L964.5,237.7z"/>
	<path id="XMLID_63_" class="st20" d="M964.5,237.7c5.5,9.4,6.4,18.2,4,26.2c4.9-0.9,10.3-3.1,16.3-8.3
		c13.5-11.6,18.1-24.7,18.1-24.7s10.9,1.9,12.8,32.2c0.6,9.1,0.2,17-0.5,23.4c17.3-15.7,31-45.7,22.3-52.1c-18-4-35-26.9-48.8-40
		L964.5,237.7z"/>
	<path id="XMLID_62_" class="st21" d="M769,353.9c17.6,0,31.9-14.3,31.9-31.9c0-17.6-14.3-31.9-31.9-31.9
		c-17.6,0-31.9,14.3-31.9,31.9C737.1,339.6,751.4,353.9,769,353.9L769,353.9z"/>
	<path id="XMLID_57_" class="st18" d="M796.3,358.3c19.5,0,35.5-15.9,35.5-35.5c0-19.5-15.9-35.5-35.5-35.5s-35.5,15.9-35.5,35.5
		C760.8,342.3,776.8,358.3,796.3,358.3L796.3,358.3z"/>
	<path id="XMLID_51_" class="st15" d="M789.6,338.5c12.1,0,22-9.9,22-22s-9.9-22-22-22s-22,9.9-22,22S777.5,338.5,789.6,338.5
		L789.6,338.5z"/>
	<path id="XMLID_49_" class="st16" d="M921.2,182c-0.8,6.4-0.8,31.3,4.1,34.2s10.1,6,10.1,6s-1,18.2,1.5,19.5s9.3-2.2,9.5-2.1
		c0.3,0.1,16,19.4,18,19s23.3-10.7,26.1-19.4c2.8-8.6,2.3-30.6,2.3-30.6s7-0.4,4.8-12.8c-2.3-12.4-2.3-13-7.7-13s-8.9,10.4-9.5,9.1
		c-0.6-1.2-8.5-21.9-17.2-24.4C954.6,164.8,921.2,182,921.2,182L921.2,182z"/>
	<path id="XMLID_48_" class="st18" d="M964,175.5c-4.2,2.3-19.5,19.1-36.9,21.2s-30.4-1.2-32.1-16.4c-1.7-15.1,3.9-19.7,3.9-19.7
		s1.5,9.3,5.6,10.8c4.1,1.4,25.3-14.7,43.3-19.5s29.6,7.2,29.6,7.2s9.5-0.8,16.6,6.6c7,7.5,9.5,42.9,9.5,42.9l-26.2-8L964,175.5z"/>
	<path id="XMLID_46_" class="st16" d="M992.9,208.5c0,0,7-0.4,4.8-12.8c-2.3-12.4-2.3-13-7.7-13c-9.3,0-12.3,17.1-3,22.3
		C990.9,207.1,992.9,208.5,992.9,208.5L992.9,208.5z"/>
	<path id="XMLID_45_" class="st22" d="M971.6,183.4c1,1.6,13.3,40.3,9,45.2c-3.5,4-12,2.6-21,4c-4.8,0.8-11.9,5.5-13,6.9
		c-1.9,2.5,8.5,18,15.8,19.4c7.3,1.3,14.5-3.9,21.6-8.5s10.9-12,9.9-22.3c-0.9-10.3-11.5-28.7-11.5-28.7L971.6,183.4z"/>
	<path id="XMLID_43_" class="st17" d="M915.4,366.5c0,0-27.9,33.8-44.5,29c-10.7-3.1-40.7-24.9-60.8-40c-3.6,1.5-7.6,2.5-11.7,2.7
		c44.5,46.8,62.8,42.6,78.2,54.2c10.2,7.6,44.2-21.9,56.1-30c-3.5-1.8-9.6-8.8-15.9-16.8C915.9,366.1,915.4,366.5,915.4,366.5
		L915.4,366.5z"/>
	<path id="XMLID_42_" class="st23" d="M973.2,452.8c21.8,10.7,50.9,20.7,66.8,20.4c22.2-0.5,34.8-7.7,39.2-4.4
		c4.4,3.4,9.2,18.9,37.2,13.5c13-2.5,23.4-9.6,30.7-16.6c-4.3-1.9-8.8-3.8-13.2-5.6c-2.3,5.3-5.4,10.7-8.4,12.1
		c-5.7,2.7-29.6-5-34.6-9.9c-0.6-0.7-1.1-1.3-1.4-2c-0.3-0.8-0.4-1.5-0.4-2.3c0.1-1.2,0.5-2.3,1.1-3.5c1.2-2.4,3.1-4.5,3.7-6
		c0.4-1.2,0.4-2.8,0.3-4.5c-0.6-0.2-1.1-0.4-1.5-0.6c-0.2,0.9-0.4,1.5-0.5,1.5c-20.5,12.9-82.6,17.3-100.7,2.4
		C988.1,448,982.2,449.8,973.2,452.8L973.2,452.8z"/>
	<path id="XMLID_41_" class="st23" d="M1071.4,501.7c-33.9-3.4-49.4-2.9-76.9,1.5c-27.6,4.3-36.3-7.3-53.2-18.9
		c-7.7-5.3-14.4-8.6-22.2-11.2c-5.7,2.5-10.7,4.8-14.3,6.8c6.3-2.6,13.3-2.6,19.8,0.3c9.6,4.5,19.6,12.6,18.2,27.7
		c-0.5,5.1-2.2,10.9-5.7,17.7c25.9-4.8,93.3-16.7,103.9-14.1c10.7,2.6,80.6,10.9,108.6,10.7c-4.1-5.5-6.6-10.2-7.9-14.3
		c-4.8-15.2,7.1-22,17.4-26.7c6.7-3.1,14-2.9,20.4-0.1c-1.8-1-3.9-2.2-6.4-3.5c-6.2-1.5-12.1-2.2-17-1.6
		c-21.3,2.9-19.8,18.9-26.1,27.6C1123.7,512.3,1105.3,505.1,1071.4,501.7L1071.4,501.7z"/>
	<path id="XMLID_40_" class="st7" d="M835.8,676.2c-0.6,0.6-1.1,1.2-1.5,1.7c-2.9,4.5,8.5,7.8,12.9,8.7s29.2-0.5,35.4-2.3
		c6.2-1.7,16.2,2.8,18.5-0.8c0.6-0.9,1-2.9,1.2-5.3c-3.3-0.5-7.8-1.1-12.7-1.3c-10.2-0.5-19.1,3.9-32.9,3.9
		C849,680.7,841.2,678.3,835.8,676.2L835.8,676.2z"/>
	<path id="XMLID_38_" class="st7" d="M1181.1,675.6c0.1,4,0.5,7.6,1.4,8.9c2.4,3.6,12.3-0.9,18.5,0.8s31,3.2,35.4,2.3
		s15.8-4.2,12.9-8.7c-0.3-0.4-0.6-0.8-1-1.2c-3,1.4-7.4,3.1-13.7,4.6c-14.7,3.3-19.4,0.7-36.5-3.6
		C1190.7,676.7,1185.2,675.9,1181.1,675.6L1181.1,675.6z"/>
	<path id="XMLID_37_" class="st24" d="M900.3,172.5c5.2,4,2.7,8.1,20.3,2.8c17.7-5.3,23.1-15.5,34-17.1s18.3,0.1,15.7,0.1
		c-2.5,0-9.4,4.5-9.4,4.5s12.9,2.5,11.8,2.2c-1.1-0.4-6.9,5.8-26.2,16.7C925.6,193.5,900.9,201.8,900.3,172.5L900.3,172.5z"/>
	<path id="XMLID_36_" class="st1" d="M1003.1,294.7C969.6,308,959.8,279,959.8,279c2.2-2.5,4.2-5.2,5.7-7.9
		c-4.1,3.1-14.7,9.3-24.8,16.3c1,5.5,3,11.5,6.8,16.7c10.4,14.2,61.4,21.8,91.2-8.2c21-21.2,18-49.2,14.4-63.8
		c-6.4,1-11.7,2-14.7,2.4c-0.3,0-0.5,0.1-0.8,0.1c8.7,6.5-5,36.5-22.3,52.1C1011.3,290.2,1007.2,293,1003.1,294.7L1003.1,294.7z"/>
	<path id="XMLID_33_" class="st17" d="M896.6,647.8c14.1-34.7,38-60.1,39.4-106.9c0.1-4.1,0.1-8.4-0.2-12.9c0.5-0.8,0.9-1.6,1.3-2.4
		c3.5-6.8,5.2-12.6,5.7-17.7c1.4-15.1-8.6-23.2-18.2-27.7c-4.1-1.9-8.5-2.6-12.8-2.1c7.4,4.2,15.1,10.2,17.4,18
		c1.8,6.3,0,10.9-2.3,15.2c-3.4,6.5-8,12.5-3.1,23.5c8.2,18.3-20.8,81.2-29.4,102.3c-2.8,6.9-9.7,10-17.6,10.9
		c-1.1,0.1-2.2,0.2-3.4,0.3c0,0.1-0.1,0.2-0.1,0.3c0.4-0.1,0.9-0.2,1.3-0.3c0.7-0.1,1.4,0,2.2,0.2c3.8,1.1,8,5.6,10.7,9
		c1.4,1.8,2.3,3.3,2.6,3.9c0,0,5.6-0.7,8.9-1.1C898.3,657.1,897.5,652.3,896.6,647.8L896.6,647.8z"/>
	<path id="XMLID_32_" class="st17" d="M1150.1,540.9c2.3,43.2,24.1,71.9,37,107.2c-0.9,4.7-1.9,9.9-2.4,13.1
		c3.2,0.4,8.9,1.1,8.9,1.1c0.3-0.6,1.2-2.1,2.6-3.9c1.8-2.3,4.4-5.2,7-7.1c-2.7,0.1-5.5-1.4-6.5-7.2c-0.2-1.2-0.7-3-1.3-5.1
		c-5.9-19.6-28-73.8-28.2-89.2c-0.2-17.2,10.2-27.6,5.1-34.4c-0.8-1.1-1.8-2.2-2.8-3.4c-5.8-6.4-14.4-14.3-11.9-20.8
		c2.9-7.7,5.8-11.6,5.8-11.6c-1.4,0.4-2.8,0.9-4.2,1.5c-10.3,4.8-22.2,11.5-17.4,26.7c1.3,4.1,3.8,8.8,7.9,14.3
		c0.2,0.3,0.5,0.6,0.7,1C1149.8,529.3,1149.8,535.2,1150.1,540.9L1150.1,540.9z"/>
	<path id="XMLID_30_" class="st18" d="M933.3,214.5c5.7-10.3,10.8-11.6,21.7-11.9C946.9,207.6,942.1,210.6,933.3,214.5L933.3,214.5z
		"/>
	<path id="XMLID_29_" class="st18" d="M942.7,216.4c2.3-1.2,3.5-2.5,6-4.1c0.9-0.6,1-0.8,2.1-1.3
		C953.8,215.5,942.5,220.2,942.7,216.4L942.7,216.4z"/>
	<path id="XMLID_27_" class="st17" d="M971.7,211.3c-2.9,4.3-9.4,13.8-9.4,13.8l0.5,7.2c1.7-0.2,3.4-0.3,5.1-0.4
		c5.6-0.3,10.3-0.5,12.7-3.2c1.7-2,0.8-9.4-1-17.7c-0.8-3.9-1.9-7.9-2.9-11.6L964,175.5c-4.2,2.3-19.5,19.1-36.9,21.2
		c-2.1,0.2-4.2,0.4-6.2,0.5c0.1,1.5,0.2,2.9,0.3,4.4c5.1-0.2,11.8-1.4,20.3-4.8c18.4-7.3,23-12.3,23.7-10.6
		C965.9,187.8,974.6,206.9,971.7,211.3L971.7,211.3z"/>
	<path id="XMLID_26_" class="st1" d="M936,535.4c30.6-6.7,78.7-16.6,101.1-16.1c22,0.5,78.7,9.5,112.7,15.2c0-3.7,0.1-7.5,0.3-11.4
		c-0.2-0.3-0.5-0.6-0.7-1c-27.9,0.2-97.8-8-108.6-10.7c-10.5-2.6-77.9,9.3-103.9,14.1c-0.4,0.8-0.9,1.6-1.3,2.4
		C935.9,530.5,936,533,936,535.4L936,535.4z"/>
	<path id="XMLID_25_" class="st1" d="M1085,311.7l-8.1-27.1c0,0,7.8,33.7,6.1,53.1c-1.7,19.3-25.6,35.6-22.3,35.8
		c3.4,0.2,19.7,3.5,28.6-4.8C1091.2,361.1,1094.7,341,1085,311.7L1085,311.7z"/>
	<path id="XMLID_24_" class="st25" d="M1133.7,305c9.9,6.5,35.5,31.7,40.6,45c5.1,13.3-32.2,60-21.5,59.3
		c10.6-0.7,37.5-30.7,35.8-46.7c-1.3-12.2-26-47.7-37.5-63.6C1138.6,281.6,1127.4,300.9,1133.7,305L1133.7,305z"/>
	<path id="XMLID_22_" class="st25" d="M907.2,361.1c-3.9-6.3-13.3-18.6-13.3-18.6c-4,7.3-5.6,12.2-9.4,29.3l-1.2,5.3l-53.9-28.3
		l-10.4,4.1c0,0,63.4,35.3,67.3,34.4c3.9-1,24.7-21.4,24.7-21.4L907.2,361.1z"/>
	<path id="XMLID_21_" class="st17" d="M985.8,189.7c1.6-2.7,3.9-4.3,6-3s3.8,15.6,2.8,16.9s-5.9,1.2-6.5-1.2
		c-0.5-2.4,1.2-3.3,0.7-5.3s-2.8-0.8-3.3-3.4S985.8,189.7,985.8,189.7L985.8,189.7z"/>
	<path id="XMLID_20_" class="st18" d="M732.4,656.3h40.7c1.8-11.6,11.9-20.5,24-20.5c13.4,0,24.3,10.9,24.3,24.3
		c0,13.4-10.9,24.3-24.3,24.3c-12.1,0-22.2-8.9-24-20.5h-40.7c-1.8,11.6-11.9,20.5-24,20.5c-13.4,0-24.3-10.9-24.3-24.3
		c0-13.4,10.9-24.3,24.3-24.3C720.5,635.7,730.6,644.6,732.4,656.3L732.4,656.3z"/>
	<path id="XMLID_19_" class="st26" d="M702.8,639.6c-2.4,0.5-11,5.1-13.5,15.1s3.9,18.9,11.9,17.4s1.2-15,4.7-22.5s10.5-6.9,7.3-9.9
		C709.8,636.7,702.8,639.6,702.8,639.6L702.8,639.6z"/>
	<path id="XMLID_17_" class="st26" d="M792,639.1c-2.4,0.5-11,5.1-13.5,15.1s3.9,18.9,11.8,17.4c8-1.5,1.2-15,4.7-22.5
		s10.5-6.9,7.3-9.9C799,636.2,792,639.1,792,639.1L792,639.1z"/>
</g>
</svg>
