<?xml version="1.0" encoding="utf-8"?>
<!-- Generator: Adobe Illustrator 19.0.0, SVG Export Plug-In . SVG Version: 6.00 Build 0)  -->
<svg version="1.1" id="Layer_1" xmlns="http://www.w3.org/2000/svg" xmlns:xlink="http://www.w3.org/1999/xlink" x="0px" y="0px"
	 viewBox="0 0 512 512" style="enable-background:new 0 0 512 512;" xml:space="preserve">
<style type="text/css">
	.st0{fill:#414C50;}
	.st1{fill:#3FABE1;}
</style>
<g id="XMLID_1_">
	<path id="XMLID_15_" class="st0" d="M137.1,260.7v192.8c19.4,16.1,42.1,28.4,67,35.6c6,1.7,12.1,3.2,18.3,4.3c10.9,2,22.1,3,33.5,3
		c11.4,0,22.6-1,33.5-3c6.2-1.1,12.4-2.6,18.3-4.3c24.9-7.2,47.6-19.4,67-35.6V297.3c0-13-7.5-24.3-18.4-29.9
		c-4.5-2.3-9.7-3.6-15.1-3.6c-1,0-2,0-2.9,0.1c-17.1,1.5-30.6,15.9-30.6,33.4v66.5c0,15.8-7.1,30-18.3,39.5
		c-9,7.7-20.7,12.3-33.5,12.3s-24.5-4.6-33.5-12.3c-11.2-9.5-18.3-23.7-18.3-39.5V260.7c0-17.6-13.7-32.1-31-33.4
		c-0.8-0.1-1.7-0.1-2.5-0.1c-5.7,0-11.1,1.4-15.8,4C144.3,236.8,137.1,247.9,137.1,260.7z"/>
	<path id="XMLID_17_" class="st1" d="M118.8,436V260.7c0-23.1,15.1-42.7,36-49.4c5-1.6,10.3-2.5,15.8-2.5c0.9,0,1.7,0,2.5,0.1
		c11.8,0.6,22.5,5.1,31,12.3c11.2,9.5,18.3,23.7,18.3,39.5v103.1c0,18.5,15,33.5,33.5,33.5s33.5-15,33.5-33.5v-66.5
		c0-15.8,7.1-30,18.3-39.5c8.4-7.2,19.2-11.7,31-12.3c0.8,0,1.7-0.1,2.5-0.1c5.5,0,10.8,0.9,15.8,2.5c20.9,6.7,36,26.3,36,49.4V436
		c30.5-33.2,49-77.4,49-126c0-65.6-33.9-123.2-85.1-156.4V91.8c0-42-34.1-76.1-76.1-76.1H231c-42,0-76.1,34.2-76.1,76.1v61.9
		c-51.2,33.2-85.1,90.8-85.1,156.4C69.7,358.6,88.3,402.9,118.8,436z M173.2,91.8c0-31.9,25.9-57.8,57.8-57.8h50
		c31.9,0,57.8,25.9,57.8,57.8v51.4c-9.9-4.9-20.2-9-31-12.1c-6-1.7-12.1-3.2-18.4-4.3c-10.9-2-22.1-3-33.5-3s-22.6,1-33.5,3
		c-6.2,1.1-12.4,2.6-18.4,4.3c-10.8,3.1-21.1,7.2-31,12.1V91.8H173.2z"/>
</g>
</svg>
